<svg width="30" height="31" viewBox="0 0 30 31" fill="none" xmlns="http://www.w3.org/2000/svg">
<path d="M15 0.5C12.0333 0.5 9.13319 1.37973 6.66645 3.02796C4.19971 4.67618 2.27713 7.01886 1.14181 9.75975C0.00649927 12.5006 -0.290551 15.5166 0.288227 18.4264C0.867006 21.3361 2.29562 24.0088 4.3934 26.1066C6.49119 28.2044 9.16393 29.633 12.0736 30.2118C14.9834 30.7906 17.9994 30.4935 20.7403 29.3582C23.4811 28.2229 25.8238 26.3003 27.472 23.8335C29.1203 21.3668 30 18.4667 30 15.5C29.9958 11.523 28.4141 7.71017 25.602 4.89804C22.7898 2.0859 18.977 0.5042 15 0.5ZM20.7692 17.8077C20.7692 18.1137 20.6477 18.4072 20.4313 18.6236C20.2149 18.84 19.9214 18.9615 19.6154 18.9615C19.3094 18.9615 19.0159 18.84 18.7995 18.6236C18.5831 18.4072 18.4615 18.1137 18.4615 17.8077V13.6697L11.201 20.9317C11.0938 21.0389 10.9665 21.124 10.8264 21.182C10.6864 21.24 10.5362 21.2699 10.3846 21.2699C10.233 21.2699 10.0829 21.24 9.94282 21.182C9.80275 21.124 9.67548 21.0389 9.56827 20.9317C9.46107 20.8245 9.37603 20.6973 9.31801 20.5572C9.25999 20.4171 9.23013 20.267 9.23013 20.1154C9.23013 19.9638 9.25999 19.8136 9.31801 19.6736C9.37603 19.5335 9.46107 19.4062 9.56827 19.299L16.8303 12.0385H12.6923C12.3863 12.0385 12.0928 11.9169 11.8764 11.7005C11.66 11.4841 11.5385 11.1906 11.5385 10.8846C11.5385 10.5786 11.66 10.2851 11.8764 10.0687C12.0928 9.85233 12.3863 9.73077 12.6923 9.73077H19.6154C19.9214 9.73077 20.2149 9.85233 20.4313 10.0687C20.6477 10.2851 20.7692 10.5786 20.7692 10.8846V17.8077Z" fill="white"/>
</svg>
