<svg width="20" height="21" viewBox="0 0 20 21" fill="none" xmlns="http://www.w3.org/2000/svg">
<g clip-path="url(#clip0_290_2988)">
<path d="M16.3805 6.125H3.61953C3.46591 6.12498 3.31758 6.18112 3.20247 6.28285C3.08736 6.38458 3.0134 6.52488 2.99453 6.67734L1.88125 16.0523C1.87096 16.1403 1.87947 16.2295 1.90624 16.3139C1.933 16.3983 1.9774 16.4761 2.0365 16.5421C2.09559 16.608 2.16804 16.6607 2.24902 16.6965C2.33001 16.7324 2.41769 16.7506 2.50625 16.75H17.4938C17.5823 16.7506 17.67 16.7324 17.751 16.6965C17.832 16.6607 17.9044 16.608 17.9635 16.5421C18.0226 16.4761 18.067 16.3983 18.0938 16.3139C18.1205 16.2295 18.1291 16.1403 18.1188 16.0523L17.0055 6.67734C16.9866 6.52488 16.9126 6.38458 16.7975 6.28285C16.6824 6.18112 16.5341 6.12498 16.3805 6.125Z" stroke="#FF3A65" stroke-linecap="round" stroke-linejoin="round"/>
<path d="M6.875 6.125V5.5C6.875 4.6712 7.20424 3.87634 7.79029 3.29029C8.37634 2.70424 9.1712 2.375 10 2.375C10.8288 2.375 11.6237 2.70424 12.2097 3.29029C12.7958 3.87634 13.125 4.6712 13.125 5.5V6.125" stroke="#FF3A65" stroke-linecap="round" stroke-linejoin="round"/>
</g>
<defs>
<clipPath id="clip0_290_2988">
<rect width="20" height="20" fill="white" transform="translate(0 0.5)"/>
</clipPath>
</defs>
</svg>
