<svg width="12" height="10" viewBox="0 0 12 10" fill="none" xmlns="http://www.w3.org/2000/svg">
<path d="M11.2499 3.59401C11.2507 3.95113 11.1807 4.30486 11.0439 4.63474C10.9071 4.96463 10.7063 5.26412 10.453 5.51589L6.26706 9.7637C6.23217 9.79913 6.19057 9.82727 6.1447 9.84648C6.09883 9.86568 6.0496 9.87557 5.99987 9.87557C5.95014 9.87557 5.90091 9.86568 5.85504 9.84648C5.80917 9.82727 5.76758 9.79913 5.73269 9.7637L1.54675 5.51589C1.03641 5.00618 0.749463 4.31461 0.749024 3.59333C0.748584 2.87204 1.03469 2.18013 1.5444 1.66979C2.05412 1.15946 2.74568 0.87251 3.46697 0.872071C4.18825 0.871631 4.88016 1.15774 5.3905 1.66745L5.99987 2.23698L6.61347 1.66558C6.9943 1.28663 7.47887 1.02902 8.006 0.925247C8.53312 0.821478 9.07918 0.87621 9.57523 1.08253C10.0713 1.28886 10.4951 1.63752 10.7931 2.08451C11.0912 2.5315 11.2501 3.05677 11.2499 3.59401Z" fill="#FF3A65"/>
</svg>
