<svg width="862" height="898" viewBox="0 0 862 898" fill="none" xmlns="http://www.w3.org/2000/svg">
<path fill-rule="evenodd" clip-rule="evenodd" d="M435.116 352.537L434.283 351.356C431.423 347.312 430.739 346.362 429.108 344.162C429.025 344.044 427.346 345.166 426.039 346.042C425.312 346.537 424.664 346.958 424.162 347.187C420.415 348.809 415.74 350.68 410.469 352.774C389.917 360.951 360.448 372.68 346.819 385.738C344.498 387.971 349.3 395.486 353.691 402.393C355.609 405.379 357.44 408.265 358.65 410.679L435.109 352.555L435.116 352.537ZM569.331 373.532C569.068 373.941 568.793 374.327 568.478 374.645C566.562 376.719 563.638 377.488 560.168 377.076C556.904 376.68 553.12 375.225 549.25 372.808C546.857 371.305 544.408 369.441 542.045 367.256C536.736 362.346 532.711 356.648 530.458 351.407C528.146 345.958 527.734 340.922 529.814 337.589C530.077 337.181 530.353 336.794 530.668 336.476C532.583 334.402 535.508 333.634 538.977 334.046C542.241 334.441 546.025 335.896 549.896 338.313C552.288 339.817 554.738 341.68 557.1 343.866C562.409 348.776 566.435 354.473 568.687 359.715C570.999 365.164 571.411 370.2 569.331 373.532ZM624.249 315.843C624.385 317.049 624.307 318.197 624.029 319.234C623.573 321.009 622.575 322.447 621.157 323.523C619.766 324.569 618.001 325.227 615.965 325.467C614.09 325.674 611.971 325.508 609.711 324.941C605.539 323.861 601.622 321.547 598.647 318.642C595.624 315.705 593.572 312.146 593.177 308.686C593.041 307.481 593.119 306.332 593.397 305.295C593.853 303.52 594.851 302.082 596.269 301.006C597.66 299.96 599.425 299.303 601.462 299.062C603.336 298.856 605.455 299.021 607.715 299.588C611.887 300.668 615.805 302.982 618.779 305.887C621.802 308.825 623.854 312.384 624.249 315.843ZM583.444 204.393C585.069 204.043 586.613 203.997 588.045 204.227C590.47 204.608 592.554 205.761 594.171 207.516C595.757 209.244 596.897 211.562 597.483 214.306C598.027 216.848 598.085 219.776 597.591 222.978C596.678 228.886 593.992 234.624 590.393 239.122C586.758 243.686 582.175 247 577.488 247.987C575.862 248.337 574.318 248.383 572.887 248.153C570.462 247.771 568.377 246.619 566.761 244.863C565.175 243.135 564.035 240.817 563.449 238.073C562.904 235.532 562.846 232.603 563.341 229.401C564.254 223.494 566.94 217.755 570.538 213.258C574.174 208.693 578.757 205.379 583.444 204.393ZM626.263 271.521C625.776 271.123 625.704 270.394 626.102 269.907C626.501 269.419 627.229 269.346 627.716 269.745C634.316 275.193 642.425 279.8 650.934 283.556C661.104 288.044 671.811 291.315 681.1 293.306C681.717 293.433 682.105 294.054 681.978 294.672C681.851 295.289 681.23 295.679 680.613 295.552C671.199 293.528 660.332 290.213 650.005 285.664C641.327 281.825 633.019 277.107 626.263 271.521ZM488.964 327.757L469.111 336.83C469.075 336.82 469.016 336.824 468.981 336.814C468.546 336.793 468.161 337.016 467.935 337.358L461.913 340.114C454.992 331.073 449.858 323.507 445.996 315.343C442.06 307.025 439.426 298.059 437.56 286.233C437.458 285.612 436.869 285.166 436.244 285.286C435.623 285.388 435.178 285.978 435.297 286.604C437.218 298.656 439.898 307.806 443.933 316.323C447.822 324.532 452.933 332.111 459.791 341.097L437.365 351.34C436.886 350.483 435.995 349.094 434.752 347.516C419.939 328.771 408.731 310.724 403.287 290.599C397.838 270.491 398.155 248.23 406.371 220.998C408.401 214.278 411.056 208.014 414.305 202.177C417.128 197.069 420.395 192.31 424.05 187.885C424.148 200.809 425.373 212.885 427.288 223.46C429.653 236.57 433.107 247.403 436.75 254.742C439.045 259.324 441.769 261.951 444.512 262.859C446.466 263.497 448.404 263.269 450.193 262.234C451.888 261.27 453.428 259.594 454.683 257.267C457.977 251.192 459.484 240.423 456.84 226.281C450.895 194.523 454.799 182.882 460.416 166.064C461.276 163.497 462.174 160.786 463.109 157.798C471.507 153.609 480.517 150.063 489.998 147.122C499.063 144.3 508.577 142.02 518.374 140.257C510.895 150.019 498.426 180.332 491.752 209.742C486.562 232.614 484.797 255.062 491.518 267.135C494.156 271.866 498.096 274.954 502.501 276.306C504.853 277.032 507.321 277.253 509.807 276.98C512.274 276.702 514.724 275.921 517.061 274.631C522.102 271.823 526.489 266.597 528.873 258.842C529.609 256.452 529.11 251.029 528.449 243.492C526.108 217.357 521.439 165.187 556.825 135.802C566.256 135.263 575.778 135.093 585.309 135.251C593.449 135.381 601.599 135.764 609.691 136.36C608.232 136.947 606.812 137.601 605.436 138.306C597.602 142.32 591.285 148.101 587.288 154.16C583.222 160.334 581.531 166.856 583.019 172.238C583.269 173.091 583.595 173.945 584.012 174.747C591.32 188.989 600.622 189.929 610.484 184.848C619.278 180.325 628.419 170.931 636.959 162.142C646.95 151.864 656.091 142.469 662.125 143.32C669.511 144.762 676.707 146.345 683.613 148.081C689.496 149.561 695.239 151.139 700.764 152.811C695.785 155.175 687.705 160.177 680.205 165.374C671.444 171.42 663.399 177.793 661.901 180.669C659.8 184.648 659.185 188.374 659.676 191.686C660.19 195.197 661.934 198.194 664.406 200.543C666.852 202.847 670.045 204.507 673.512 205.359C677.966 206.457 682.878 206.202 687.298 204.282C696 200.461 702.861 192.43 709.614 184.523C717.012 175.85 724.322 167.287 733.567 165.011C744.981 170.216 754.458 175.86 761.393 181.705C767.637 186.981 771.775 192.402 773.347 197.825L620.643 267.619C621.716 260.681 622.287 254.05 622.852 247.513C624.548 227.749 626.159 209.016 641.168 188.16C641.535 187.646 641.422 186.925 640.908 186.558C640.394 186.19 639.674 186.304 639.306 186.818C623.913 208.182 622.279 227.216 620.554 247.3C619.959 254.308 619.335 261.423 618.138 268.749L542.078 303.524C544.033 292.3 544.007 282.462 543.993 272.798C543.946 259.754 543.912 247.02 548.839 231.705C549.037 231.107 548.694 230.459 548.096 230.261C547.498 230.062 546.851 230.406 546.652 231.004C541.607 246.69 541.651 259.6 541.695 272.797C541.731 282.81 541.755 293.012 539.546 304.685L491.568 326.613C493.29 314.33 488.833 302.308 483.973 289.22C478.162 273.538 471.745 256.257 474.943 235.247C475.035 234.62 474.601 234.024 473.974 233.933C473.348 233.842 472.752 234.276 472.661 234.903C469.368 256.482 475.892 274.079 481.825 290.021C486.77 303.362 491.295 315.556 489.054 327.777L488.964 327.757ZM569.573 405.624C570.176 405.805 570.524 406.435 570.356 407.061C570.175 407.664 569.546 408.013 568.921 407.845C552.333 402.941 543.613 390.255 533.229 375.131C523.257 360.615 511.731 343.824 490.111 329.771L470.017 338.952C469.53 350.416 469.817 361.206 471.919 371.37C474.074 381.76 478.12 391.526 485.191 400.722C485.573 401.227 485.493 401.953 484.988 402.335C484.484 402.718 483.759 402.638 483.377 402.133C476.065 392.623 471.889 382.555 469.668 371.84C467.591 361.798 467.247 351.222 467.662 340.027L438.141 353.523C438.235 354.028 438.185 354.359 437.981 354.477C439.978 370.459 441.909 381.976 444.575 391.104C447.312 400.538 450.842 407.444 456.017 414.139C468.282 429.96 483.005 439.75 498.887 445.136C513.557 450.121 529.252 451.356 544.942 450.175C531.969 443.287 520.905 433.845 512.701 424.307C501.923 411.799 495.963 399.028 496.76 391.481C497.081 388.424 498.553 385.79 500.618 383.871C502.838 381.802 505.744 380.53 508.691 380.323C520.513 379.504 528.366 391.21 537.798 405.313C547.44 419.702 558.775 436.633 577.532 444.591C589.158 441.574 600.391 437.665 610.813 433.424C620.069 429.676 628.653 425.651 636.246 421.822C633.102 421.267 628.96 420.502 624.38 419.447C605.902 415.167 580.548 406.112 585.012 386.878C587.356 376.774 592.985 374.986 601.605 376.97C606.346 378.068 611.943 380.334 618.434 382.974C633.404 389.055 653.178 397.075 676.947 396.545C684.185 390.972 691.183 384.932 697.878 378.523C704.063 372.591 709.997 366.305 715.628 359.726C699.772 360.096 682.327 358.392 668.047 354.949C654.487 351.68 643.7 346.778 639.716 340.497C638.492 339.135 637.542 337.749 636.826 336.35C634.708 332.179 634.695 327.941 635.735 324.272C636.789 320.625 638.901 317.531 641.056 315.56C641.886 314.824 642.717 314.222 643.513 313.822C651.673 309.665 662.495 314.865 675.933 321.302C691.779 328.902 711.377 338.292 733.927 335.73C738.525 328.932 742.822 321.9 746.735 314.727C750.185 308.426 753.35 301.973 756.216 295.42C745.481 298.542 718.513 290.722 710.678 288.45C709.95 288.236 709.437 288.079 708.883 287.931C705.275 286.964 702.661 285.286 700.873 283.312C699.249 281.516 698.293 279.439 697.879 277.412C697.451 275.362 697.553 273.338 698.013 271.622C698.468 269.923 699.296 268.478 700.335 267.529C706.45 262.001 714.596 264.183 725.158 266.994C735.988 269.877 749.457 273.486 765.661 269.817C769.19 258.076 771.687 246.115 773.036 234.077C774.291 222.819 774.511 211.495 773.609 200.214L542.902 305.665C555.741 314.912 564.403 322.887 571.867 329.755C584.306 341.213 593.307 349.49 612.943 355.306C613.546 355.487 613.894 356.117 613.726 356.743C613.545 357.346 612.916 357.695 612.291 357.527C592.119 351.566 582.949 343.13 570.299 331.462C562.698 324.461 553.838 316.299 540.478 306.779L492.541 328.699C513.758 342.835 525.193 359.468 535.093 373.887C545.214 388.634 553.729 401.016 569.535 405.692L569.573 405.624Z" fill="url(#paint0_linear_1_3)"/>
<path fill-rule="evenodd" clip-rule="evenodd" d="M355.714 681.885L354.84 683.333C351.854 688.3 351.158 689.48 349.569 692.263C349.482 692.408 351.473 693.679 353.027 694.667C353.9 695.212 354.655 695.709 355.138 696.138C358.638 699.389 362.844 703.517 367.568 708.179C386.001 726.349 412.436 752.4 432.84 760.856C436.325 762.292 442.117 753.609 447.449 745.655C449.746 742.194 451.976 738.875 453.992 736.442L355.736 681.884L355.714 681.885ZM315.039 528.212C315.6 528.301 316.144 528.415 316.633 528.603C319.756 529.678 321.956 532.45 323.147 536.361C324.26 540.044 324.482 544.783 323.714 550.067C323.23 553.338 322.386 556.839 321.157 560.399C318.394 568.398 314.186 575.392 309.63 580.272C304.88 585.313 299.679 588.125 295.13 587.465C294.568 587.376 294.025 587.262 293.536 587.074C290.412 585.999 288.212 583.227 287.021 579.316C285.908 575.633 285.686 570.894 286.454 565.61C286.938 562.339 287.782 558.838 289.012 555.278C291.774 547.279 295.983 540.285 300.538 535.405C305.288 530.364 310.489 527.552 315.039 528.212ZM227.386 496.528C228.614 495.814 229.88 495.357 231.122 495.167C233.239 494.82 235.249 495.213 237.07 496.225C238.844 497.223 240.38 498.805 241.595 500.873C242.699 502.784 243.519 505.132 243.976 507.821C244.782 512.799 244.146 518.085 242.434 522.639C240.71 527.26 237.863 531.133 234.342 533.184C233.115 533.898 231.848 534.355 230.606 534.545C228.49 534.891 226.479 534.499 224.659 533.486C222.884 532.489 221.349 530.907 220.133 528.838C219.029 526.928 218.209 524.579 217.753 521.891C216.946 516.913 217.582 511.627 219.295 507.073C221.019 502.452 223.866 498.578 227.386 496.528ZM127.189 592.698C126.049 591.121 125.273 589.489 124.846 587.847C124.113 585.069 124.367 582.293 125.487 579.735C126.592 577.223 128.538 574.911 131.202 572.991C133.669 571.212 136.779 569.772 140.442 568.794C147.201 566.992 154.613 567.169 161.125 568.907C167.726 570.654 173.434 574.004 176.696 578.561C177.837 580.138 178.613 581.771 179.04 583.413C179.773 586.19 179.519 588.966 178.399 591.524C177.294 594.036 175.347 596.349 172.683 598.268C170.217 600.047 167.107 601.488 163.443 602.465C156.685 604.268 149.273 604.09 142.76 602.352C136.159 600.605 130.452 597.255 127.189 592.698ZM178.954 515.229C178.756 515.939 178.01 516.359 177.3 516.162C176.59 515.964 176.169 515.219 176.367 514.509C179.098 504.874 180.217 494.018 180.236 483.134C180.257 470.126 178.723 457.116 176.484 446.228C176.33 445.507 176.813 444.798 177.534 444.643C178.255 444.489 178.965 444.971 179.119 445.692C181.381 456.73 182.945 469.933 182.931 483.137C182.903 494.242 181.758 505.363 178.954 515.229ZM303.822 635.857L322.886 652.857C322.893 652.9 322.924 652.961 322.931 653.004C323.113 653.479 323.533 653.787 324.005 653.868L329.792 659.023C323.364 670.693 317.674 679.753 310.745 687.734C303.686 695.866 295.32 702.907 283.528 710.472C282.911 710.874 282.711 711.714 283.134 712.328C283.535 712.945 284.376 713.145 284.991 712.722C296.999 704.992 305.541 697.815 312.766 689.482C319.731 681.452 325.445 672.41 331.844 660.833L353.372 680.039C352.68 680.955 351.612 682.564 350.505 684.638C337.395 709.33 323.335 729.832 304.336 745.136C285.359 760.437 261.361 770.575 228.318 774.59C220.164 775.578 212.203 775.681 204.42 774.948C197.619 774.327 190.983 773.067 184.522 771.234C198.322 765.046 210.683 758.05 221.111 751.021C234.043 742.317 244.024 733.518 250.172 726.161C254 721.546 255.533 717.392 255.214 714.026C254.979 711.631 253.822 709.663 251.872 708.233C250.042 706.871 247.521 706.01 244.436 705.76C236.379 705.091 224.132 708.545 210.224 718.033C178.999 739.35 164.69 740.646 144.029 742.544C140.873 742.83 137.546 743.143 133.905 743.548C125.465 736.523 117.425 728.538 109.813 719.766C102.523 711.382 95.6022 702.262 89.102 692.596C103.081 696.014 141.424 695.106 176.075 688.414C203.021 683.21 227.901 674.535 237.673 661.653C241.5 656.6 242.953 650.926 242.329 645.57C242 642.708 241.074 639.96 239.612 637.426C238.153 634.913 236.164 632.657 233.681 630.76C228.3 626.681 220.638 624.44 211.207 625.536C208.3 625.872 202.724 628.96 194.962 633.215C168.063 648.022 114.368 677.579 66.2323 653.498C61.2159 643.649 56.5521 633.526 52.2359 623.242C48.5445 614.459 45.1184 605.548 41.9491 596.598C43.264 597.885 44.6334 599.098 46.0358 600.24C54.0237 606.744 63.1906 610.79 71.5627 612.221C80.091 613.672 87.8745 612.413 92.9401 608.287C93.736 607.618 94.4974 606.866 95.16 606.042C106.979 591.51 103.609 581.101 93.5237 572.927C84.5386 565.635 70.1715 560.263 56.7364 555.25C41.0227 549.383 26.6556 544.011 24.727 537.147C22.7961 528.555 21.1054 520.1 19.7144 511.885C18.5318 504.885 17.5185 497.99 16.7095 491.284C21.5864 495.506 30.7483 501.808 39.8455 507.397C50.4467 513.938 61.0604 519.558 64.8465 519.809C70.0981 520.186 74.3793 519.092 77.6973 517.007C81.2165 514.804 83.6065 511.525 84.9597 507.771C86.2764 504.066 86.5526 499.864 85.834 495.749C84.9137 490.46 82.3283 485.318 78.1905 481.486C70.0025 473.962 58.169 470.391 46.5195 466.878C33.7455 463.034 21.1316 459.232 14.3423 450.399C14.5464 435.721 16.1326 422.911 19.1302 412.731C21.8438 403.557 25.7038 396.573 30.7739 392.336L177.418 523.088C169.481 525.202 162.108 527.712 154.838 530.184C132.866 537.669 112.038 544.759 82.6306 538.496C81.906 538.344 81.1877 538.804 81.0357 539.528C80.8837 540.252 81.3443 540.97 82.0688 541.121C112.202 547.558 133.363 540.351 155.692 532.746C163.48 530.085 171.396 527.405 179.808 525.239L252.862 590.359C239.917 593.548 229.389 598.205 219.043 602.769C205.09 608.958 191.463 614.988 172.737 616.918C172.003 616.987 171.47 617.659 171.539 618.393C171.607 619.127 172.281 619.659 173.015 619.59C192.195 617.613 206.004 611.489 220.122 605.231C230.833 600.48 241.752 595.653 255.298 592.526L301.371 633.606C287.401 637.543 276.619 647.975 264.884 659.342C250.819 672.949 235.325 687.957 211.31 694.419C210.595 694.616 210.162 695.361 210.359 696.075C210.556 696.789 211.302 697.222 212.016 697.025C236.684 690.397 252.467 675.126 266.754 661.267C278.719 649.689 289.653 639.103 303.801 635.751L303.822 635.857ZM349.306 512.849C349.216 512.118 349.727 511.449 350.477 511.334C351.208 511.244 351.878 511.754 351.993 512.503C354.545 532.581 345.059 547.895 333.742 566.137C322.884 583.653 310.32 603.904 305.44 633.681L324.733 650.887C337.245 646.014 348.669 640.628 358.57 633.592C368.686 626.393 377.244 617.462 383.769 605.559C384.13 604.912 384.945 604.656 385.592 605.016C386.239 605.377 386.496 606.191 386.135 606.838C379.387 619.147 370.566 628.36 360.133 635.783C350.351 642.734 339.183 648.08 326.993 652.905L355.347 678.18C355.843 677.841 356.221 677.739 356.444 677.902C372.625 668.241 384.056 660.752 392.581 653.599C401.399 646.226 407.137 639.195 411.874 630.499C423.05 609.913 426.61 589.532 424.906 569.982C423.342 551.919 417.278 534.523 408.628 518.269C407.355 535.41 402.446 551.707 396.089 564.986C387.761 582.42 376.884 594.815 368.423 597.514C364.997 598.608 361.483 598.271 358.455 596.962C355.193 595.557 352.463 593.042 350.854 589.983C344.413 577.703 353.258 563.78 363.928 547.038C374.805 529.935 387.61 509.822 387.308 485.982C378.603 474.947 369.129 464.752 359.68 455.582C351.308 447.43 342.957 440.128 335.28 433.795C336.165 437.425 337.295 442.222 338.321 447.626C342.431 469.436 344.663 500.862 321.957 505.131C310.029 507.376 305.463 502.186 303.532 492.017C302.477 486.421 302.271 479.359 302.044 471.162C301.513 452.261 300.799 427.303 289.043 402.087C279.666 396.956 269.902 392.301 259.885 388.144C250.619 384.31 241.091 380.911 231.393 377.975C239.252 394.788 245.637 414.28 248.669 431.199C251.548 447.265 251.373 461.129 246.52 468.353C245.636 470.306 244.599 471.975 243.437 473.401C239.966 477.634 235.43 479.643 231.01 480.254C226.608 480.842 222.298 480.036 219.172 478.654C217.993 478.112 216.958 477.505 216.155 476.84C207.86 470.054 208.338 456.013 208.909 438.586C209.593 418.033 210.43 392.617 197.072 369.664C187.625 367.937 178.069 366.644 168.542 365.828C160.168 365.097 151.765 364.744 143.395 364.757C151.793 374.788 156.107 407.361 157.361 416.824C157.474 417.705 157.547 418.328 157.649 418.991C158.311 423.312 157.744 426.902 156.471 429.746C155.311 432.332 153.536 434.334 151.559 435.732C149.564 437.154 147.348 437.998 145.292 438.313C143.258 438.625 141.32 438.418 139.815 437.751C131.014 433.802 129.519 424.048 127.559 411.409C125.55 398.45 123.078 382.321 111.521 366.687C97.2808 368.433 83.2916 371.388 69.76 375.608C57.1077 379.562 44.8714 384.656 33.2107 390.932L254.768 588.469C258.632 570.361 263.099 557.329 266.944 546.099C273.365 527.38 277.996 513.841 274.986 490.066C274.896 489.336 275.407 488.666 276.157 488.552C276.888 488.461 277.558 488.972 277.673 489.72C280.78 514.137 276.058 527.931 269.51 546.975C265.588 558.414 261.014 571.748 257.102 590.541L303.147 631.582C308.307 602.198 320.744 582.119 331.533 564.726C342.569 546.942 351.826 531.993 349.397 512.858L349.306 512.849Z" fill="url(#paint1_linear_1_3)"/>
<path fill-rule="evenodd" clip-rule="evenodd" d="M220.353 242.159L219.426 241.937C216.245 241.179 215.492 241.007 213.725 240.627C213.632 240.605 213.289 241.893 213.023 242.897C212.879 243.459 212.74 243.95 212.592 244.283C211.441 246.72 209.94 249.685 208.24 253.021C201.617 266.034 192.123 284.694 191.059 297.107C190.882 299.227 196.539 300.858 201.726 302.368C203.979 303.012 206.144 303.644 207.797 304.313L220.358 242.171L220.353 242.159ZM296.034 194.058C296.082 194.375 296.114 194.686 296.096 194.981C296.051 196.844 294.937 198.5 293.037 199.809C291.247 201.035 288.737 201.964 285.765 202.453C283.923 202.751 281.897 202.895 279.773 202.841C275.001 202.722 270.522 201.653 267.12 200.036C263.599 198.343 261.2 196.027 260.778 193.468C260.73 193.151 260.698 192.839 260.716 192.544C260.761 190.681 261.876 189.025 263.775 187.717C265.565 186.49 268.075 185.562 271.047 185.073C272.889 184.775 274.915 184.631 277.039 184.684C281.811 184.804 286.29 185.873 289.692 187.489C293.213 189.183 295.613 191.499 296.034 194.058ZM298.108 141.522C298.701 142.06 299.163 142.663 299.477 143.298C300.025 144.377 300.157 145.525 299.923 146.677C299.69 147.801 299.101 148.897 298.197 149.903C297.358 150.823 296.235 151.665 294.867 152.369C292.329 153.653 289.378 154.213 286.637 154.07C283.858 153.932 281.29 153.062 279.586 151.519C278.993 150.981 278.531 150.378 278.217 149.743C277.669 148.664 277.537 147.516 277.771 146.364C278.004 145.24 278.593 144.144 279.497 143.138C280.336 142.218 281.459 141.376 282.826 140.672C285.365 139.388 288.316 138.828 291.056 138.971C293.835 139.11 296.404 139.979 298.108 141.522ZM229.297 104.066C229.95 103.184 230.695 102.488 231.505 101.978C232.873 101.11 234.409 100.772 235.976 100.938C237.515 101.103 239.091 101.755 240.577 102.86C241.955 103.882 243.26 105.309 244.411 107.111C246.534 110.437 247.704 114.453 247.881 118.251C248.069 122.098 247.242 125.739 245.348 128.271C244.695 129.153 243.95 129.849 243.14 130.359C241.772 131.227 240.236 131.565 238.669 131.399C237.13 131.234 235.554 130.582 234.068 129.477C232.69 128.455 231.385 127.028 230.234 125.226C228.111 121.9 226.941 117.884 226.764 114.086C226.576 110.239 227.403 106.598 229.297 104.066ZM279.785 118.674C279.37 118.689 279.016 118.359 279.001 117.944C278.986 117.529 279.315 117.175 279.73 117.16C285.377 116.984 291.405 115.732 297.26 113.884C304.258 111.676 310.991 108.63 316.463 105.567C316.824 105.361 317.288 105.5 317.494 105.862C317.7 106.223 317.562 106.687 317.201 106.893C311.652 109.993 304.82 113.088 297.719 115.334C291.743 117.215 285.568 118.498 279.785 118.674ZM236.243 206.402L230.357 219.554C230.335 219.565 230.308 219.592 230.286 219.603C230.061 219.782 229.967 220.061 230.005 220.328L228.221 224.32C220.849 222.855 215.006 221.343 209.532 218.98C203.955 216.573 198.742 213.276 192.661 208.228C192.34 207.964 191.854 208 191.596 208.332C191.333 208.654 191.369 209.14 191.701 209.398C197.907 214.535 203.224 217.902 208.937 220.365C214.444 222.739 220.281 224.268 227.598 225.732L220.947 240.585C220.336 240.369 219.288 240.07 217.984 239.829C202.47 236.995 189.047 232.935 177.576 225.333C166.109 217.741 156.562 206.569 148.763 189.488C146.84 185.272 145.425 181.01 144.491 176.7C143.664 172.938 143.209 169.155 143.092 165.368C148.774 171.731 154.646 177.183 160.205 181.59C167.092 187.057 173.527 190.922 178.532 192.971C181.667 194.242 184.162 194.357 185.917 193.611C187.164 193.076 188.025 192.118 188.462 190.825C188.881 189.609 188.914 188.106 188.522 186.405C187.506 181.959 183.559 175.964 176.083 170.106C159.292 156.956 156.152 149.483 151.605 138.699C150.912 137.051 150.176 135.316 149.337 133.427C151.673 127.69 154.594 122.004 158.011 116.414C161.274 111.063 164.996 105.786 169.084 100.641C169.632 108.74 176.666 129.201 186.179 146.689C193.576 160.288 202.487 172.185 211.082 175.239C214.452 176.435 217.751 176.247 220.524 174.998C222.006 174.332 223.326 173.365 224.439 172.147C225.541 170.933 226.414 169.478 227.01 167.82C228.285 164.231 228.182 159.728 225.983 154.844C225.306 153.339 222.694 150.868 219.081 147.421C206.528 135.486 181.471 111.662 186.202 81.6703C190.641 77.292 195.287 73.0565 200.08 68.9802C204.172 65.4963 208.378 62.1331 212.65 58.9013C212.182 59.828 211.763 60.7714 211.389 61.7204C209.255 67.1254 208.645 72.7448 209.304 77.4903C209.98 82.3234 211.985 86.2934 215.069 88.3126C215.565 88.6263 216.099 88.9074 216.655 89.1229C226.486 92.9971 231.507 89.408 234.18 82.5905C236.567 76.5147 237.003 67.873 237.405 59.7939C237.877 50.3437 238.313 41.7021 241.674 39.4935C245.964 36.9885 250.221 34.6363 254.401 32.486C257.962 30.6553 261.497 28.9336 264.964 27.3538C263.527 30.6966 261.702 36.6984 260.25 42.5437C258.543 49.3601 257.333 56.026 257.844 58.1045C258.538 60.9925 259.857 63.1075 261.545 64.5356C263.33 66.0516 265.501 66.777 267.75 66.8637C269.967 66.9393 272.273 66.3704 274.363 65.2816C277.05 63.884 279.373 61.6161 280.727 58.7373C283.375 53.0505 283.275 46.0785 283.175 39.2154C283.061 31.6912 282.952 24.2601 286.542 19.102C294.469 16.7062 301.627 15.3723 307.613 15.2463C313.008 15.1394 317.422 16.0225 320.565 18.0253L275.298 119.19C272.806 115.283 270.198 111.747 267.628 108.261C259.853 97.7245 252.486 87.7367 250.833 70.8561C250.791 70.4407 250.421 70.1331 250.006 70.1749C249.59 70.2168 249.283 70.5869 249.325 71.0023C251.008 88.3026 258.496 98.4496 266.396 109.157C269.156 112.89 271.949 116.689 274.549 120.842L252.007 171.236C248.083 164.82 243.781 159.955 239.561 155.171C233.852 148.726 228.284 142.429 224.05 132.69C223.887 132.307 223.435 132.135 223.052 132.297C222.669 132.459 222.498 132.912 222.66 133.295C226.997 143.27 232.647 149.65 238.422 156.172C242.805 161.12 247.264 166.167 251.258 172.916L237.035 204.7C232.534 197.861 225.084 193.844 216.969 189.475C207.253 184.236 196.539 178.467 188.965 166.658C188.737 166.308 188.262 166.202 187.912 166.43C187.561 166.658 187.456 167.132 187.684 167.483C195.458 179.615 206.363 185.493 216.254 190.809C224.521 195.266 232.079 199.338 236.296 206.373L236.243 206.402ZM310.144 209.86C310.522 209.687 310.969 209.847 311.158 210.23C311.332 210.608 311.172 211.055 310.789 211.245C300.429 216.045 290.576 213.558 278.836 210.588C267.565 207.74 254.532 204.441 237.689 206.901L231.731 220.211C236.488 226.106 241.334 231.329 246.806 235.451C252.404 239.662 258.667 242.738 266.18 244.215C266.59 244.298 266.867 244.693 266.783 245.102C266.7 245.512 266.306 245.789 265.896 245.705C258.126 244.178 251.667 241.008 245.895 236.666C240.488 232.593 235.707 227.501 231.032 221.77L222.283 241.329C222.55 241.538 222.669 241.725 222.619 241.872C230.576 248.923 236.554 253.791 241.855 257.153C247.324 260.636 252.085 262.52 257.568 263.583C270.544 266.078 282.11 264.513 292.331 260.259C301.776 256.335 310.093 250.105 317.356 242.68C307.923 244.921 298.323 245.064 290.098 243.913C279.303 242.411 270.782 238.679 267.886 234.59C266.713 232.935 266.294 230.988 266.481 229.137C266.68 227.143 267.566 225.246 268.936 223.859C274.439 218.3 283.435 220.678 294.258 223.557C305.31 226.486 318.31 229.937 331.076 225.705C335.523 219.142 339.388 212.307 342.705 205.662C345.659 199.769 348.159 194.032 350.254 188.824C348.453 189.919 346.067 191.346 343.337 192.819C332.312 198.753 315.797 205.317 309.625 193.837C306.382 187.807 308.393 184.467 313.531 181.693C316.36 180.17 320.122 178.854 324.49 177.332C334.561 173.821 347.859 169.176 359.41 158.551C360.568 152.634 361.404 146.589 361.929 140.494C362.408 134.858 362.61 129.155 362.533 123.439C354.835 130.535 345.445 137.295 336.865 141.813C328.719 146.104 321.235 148.376 316.522 147C315.321 146.858 314.247 146.585 313.282 146.204C310.414 145.06 308.559 142.965 307.476 140.693C306.408 138.426 306.106 135.971 306.315 134.054C306.405 133.328 306.555 132.668 306.776 132.122C309.008 126.505 316.639 124.364 326.107 121.697C337.274 118.556 351.082 114.668 361.143 103.567C360.458 98.1932 359.523 92.8345 358.335 87.573C357.299 82.9459 356.054 78.3674 354.619 73.8698C350.658 80.0971 333.882 87.977 329.008 90.2663C328.554 90.4773 328.231 90.6234 327.892 90.7912C325.682 91.885 323.655 92.1928 321.908 91.9937C320.32 91.8117 318.94 91.199 317.851 90.3745C316.746 89.5445 315.914 88.4972 315.394 87.4458C314.879 86.4054 314.659 85.3281 314.761 84.4052C315.382 78.999 320.371 76.5298 326.832 73.3188C333.457 70.0266 341.707 65.944 348.139 57.0615C344.77 49.7032 340.794 42.6861 336.215 36.1311C331.929 30.0033 327.101 24.294 321.737 19.0958L253.349 171.938C263.744 170.925 271.513 171.102 278.208 171.252C289.368 171.51 297.438 171.688 309.707 166.012C310.084 165.839 310.531 165.999 310.721 166.382C310.895 166.76 310.734 167.207 310.352 167.397C297.754 173.236 289.531 173.051 278.174 172.782C271.355 172.626 263.405 172.442 252.633 173.547L238.427 205.309C255.106 203.068 268.025 206.327 279.218 209.159C290.663 212.057 300.281 214.482 310.155 209.91L310.144 209.86Z" fill="url(#paint2_linear_1_3)"/>
<path fill-rule="evenodd" clip-rule="evenodd" d="M473.437 733.397L472.528 732.11C469.4 727.704 468.652 726.669 466.869 724.272C466.778 724.143 464.948 725.37 463.524 726.328C462.733 726.87 462.026 727.329 461.479 727.581C457.395 729.356 452.298 731.406 446.551 733.7C424.147 742.656 392.021 755.503 377.177 769.771C374.649 772.212 379.901 780.402 384.703 787.928C386.801 791.182 388.803 794.327 390.127 796.957L473.431 733.417L473.437 733.397ZM619.885 756.062C619.599 756.508 619.299 756.93 618.956 757.278C616.871 759.543 613.682 760.387 609.896 759.944C606.335 759.518 602.204 757.938 597.978 755.308C595.365 753.672 592.69 751.644 590.109 749.264C584.309 743.917 579.907 737.709 577.441 731.995C574.91 726.055 574.451 720.563 576.714 716.923C577 716.477 577.3 716.055 577.643 715.708C579.729 713.442 582.918 712.598 586.704 713.042C590.265 713.467 594.395 715.048 598.622 717.677C601.234 719.313 603.909 721.342 606.49 723.721C612.29 729.069 616.692 735.276 619.158 740.99C621.69 746.93 622.148 752.423 619.885 756.062ZM679.69 693.034C679.842 694.348 679.759 695.601 679.457 696.733C678.962 698.67 677.876 700.241 676.331 701.417C674.816 702.56 672.892 703.281 670.671 703.546C668.626 703.775 666.314 703.599 663.848 702.984C659.295 701.814 655.018 699.296 651.768 696.132C648.465 692.933 646.22 689.055 645.783 685.282C645.632 683.967 645.715 682.714 646.017 681.582C646.511 679.645 647.597 678.074 649.142 676.898C650.658 675.755 652.582 675.034 654.803 674.769C656.847 674.54 659.159 674.716 661.626 675.331C666.179 676.501 670.456 679.019 673.706 682.183C677.009 685.382 679.254 689.26 679.69 693.034ZM634.98 571.529C636.753 571.144 638.437 571.091 639.999 571.34C642.645 571.752 644.921 573.005 646.688 574.918C648.42 576.8 649.668 579.326 650.312 582.319C650.911 585.09 650.979 588.284 650.446 591.778C649.46 598.224 646.54 604.489 642.623 609.402C638.665 614.387 633.671 618.01 628.56 619.095C626.788 619.48 625.103 619.533 623.541 619.284C620.895 618.872 618.619 617.619 616.853 615.706C615.12 613.824 613.872 611.298 613.228 608.305C612.63 605.534 612.561 602.34 613.095 598.846C614.08 592.4 617 586.135 620.918 581.222C624.875 576.237 629.869 572.613 634.98 571.529ZM681.809 644.681C681.278 644.247 681.197 643.452 681.631 642.92C682.065 642.388 682.859 642.307 683.391 642.741C690.6 648.672 699.455 653.683 708.743 657.765C719.846 662.643 731.531 666.193 741.667 668.348C742.34 668.485 742.765 669.162 742.628 669.836C742.49 670.51 741.813 670.936 741.14 670.798C730.868 668.607 719.006 665.011 707.734 660.067C698.26 655.894 689.188 650.762 681.809 644.681ZM532.135 706.27L510.493 716.203C510.454 716.192 510.391 716.196 510.352 716.186C509.877 716.164 509.458 716.407 509.212 716.781L502.647 719.798C495.082 709.948 489.468 701.703 485.24 692.804C480.932 683.737 478.043 673.962 475.986 661.064C475.874 660.387 475.231 659.902 474.549 660.034C473.872 660.146 473.387 660.79 473.518 661.473C475.635 674.617 478.575 684.593 482.992 693.877C487.249 702.826 492.837 711.084 500.335 720.874L475.889 732.087C475.365 731.154 474.39 729.64 473.032 727.92C456.84 707.499 444.581 687.831 438.607 665.888C432.627 643.963 432.933 619.679 441.847 589.957C444.05 582.623 446.935 575.785 450.469 569.412C453.54 563.835 457.095 558.638 461.074 553.804C461.204 567.903 462.562 581.074 464.67 592.606C467.273 606.903 471.06 618.714 475.047 626.713C477.559 631.708 480.534 634.568 483.528 635.554C485.661 636.247 487.774 635.994 489.725 634.863C491.571 633.808 493.249 631.977 494.614 629.436C498.196 622.804 499.821 611.053 496.912 595.63C490.37 560.997 494.608 548.292 500.705 529.936C501.639 527.134 502.614 524.175 503.629 520.914C512.782 516.33 522.605 512.446 532.941 509.221C542.826 506.126 553.2 503.622 563.884 501.681C555.743 512.344 542.195 545.433 534.967 577.527C529.345 602.486 527.46 626.977 534.813 640.135C537.699 645.292 542.003 648.653 546.811 650.12C549.377 650.908 552.07 651.144 554.781 650.842C557.472 650.535 560.143 649.678 562.69 648.267C568.184 645.195 572.96 639.487 575.548 631.022C576.347 628.414 575.792 622.499 575.057 614.279C572.458 585.773 567.272 528.871 605.821 496.753C616.107 496.148 626.495 495.946 636.892 496.101C645.772 496.229 654.663 496.632 663.491 497.268C661.901 497.911 660.353 498.627 658.854 499.398C650.315 503.791 643.434 510.109 639.085 516.725C634.66 523.467 632.827 530.586 634.459 536.454C634.734 537.383 635.091 538.314 635.548 539.188C643.544 554.712 653.693 555.721 664.442 550.161C674.027 545.211 683.983 534.947 693.283 525.344C704.163 514.114 714.119 503.85 720.702 504.767C728.762 506.328 736.615 508.042 744.151 509.923C750.571 511.527 756.839 513.238 762.869 515.052C757.441 517.64 748.636 523.111 740.464 528.793C730.917 535.404 722.153 542.37 720.524 545.51C718.24 549.855 717.575 553.92 718.116 557.533C718.684 561.362 720.591 564.628 723.292 567.186C725.964 569.694 729.45 571.5 733.234 572.424C738.094 573.613 743.452 573.326 748.271 571.223C757.756 567.041 765.227 558.268 772.579 549.63C780.634 540.155 788.593 530.802 798.673 528.303C811.134 533.96 821.483 540.1 829.058 546.464C835.879 552.208 840.403 558.114 842.127 564.027L675.671 640.434C676.83 632.864 677.441 625.629 678.045 618.497C679.861 596.934 681.585 576.497 697.92 553.719C698.32 553.157 698.195 552.372 697.634 551.971C697.072 551.571 696.287 551.696 695.887 552.259C679.133 575.591 677.384 596.357 675.538 618.269C674.902 625.915 674.234 633.678 672.941 641.672L590.032 679.741C592.144 667.493 592.099 656.761 592.066 646.22C591.991 631.991 591.932 618.099 597.279 601.385C597.495 600.732 597.119 600.025 596.466 599.81C595.814 599.595 595.108 599.971 594.893 600.624C589.417 617.744 589.488 631.826 589.56 646.222C589.616 657.146 589.66 668.274 587.271 681.012L534.974 705.018C536.83 691.615 531.947 678.509 526.622 664.24C520.255 647.144 513.224 628.304 516.676 605.379C516.774 604.695 516.3 604.046 515.616 603.948C514.933 603.849 514.284 604.324 514.185 605.009C510.632 628.553 517.779 647.738 524.28 665.118C529.698 679.663 534.656 692.956 532.233 706.292L532.135 706.27ZM620.206 791.07C620.864 791.266 621.245 791.952 621.063 792.635C620.867 793.293 620.181 793.675 619.498 793.493C601.395 788.173 591.86 774.35 580.506 757.87C569.602 742.053 556.999 723.757 533.389 708.465L511.486 718.516C510.975 731.023 511.307 742.793 513.618 753.877C515.988 765.207 520.419 775.853 528.148 785.872C528.565 786.422 528.48 787.214 527.93 787.632C527.381 788.05 526.589 787.964 526.172 787.414C518.179 777.053 513.606 766.077 511.163 754.393C508.88 743.442 508.485 731.906 508.919 719.692L476.739 734.468C476.843 735.018 476.789 735.38 476.567 735.508C478.774 752.939 480.9 765.499 483.825 775.452C486.828 785.738 490.69 793.266 496.348 800.56C509.755 817.796 525.833 828.449 543.168 834.297C559.18 839.709 576.303 841.028 593.417 839.712C579.252 832.221 567.166 821.941 558.2 811.551C546.42 797.925 539.896 784.005 540.752 775.77C541.097 772.435 542.698 769.559 544.947 767.462C547.365 765.201 550.533 763.809 553.747 763.577C566.642 762.664 575.229 775.419 585.543 790.786C596.087 806.465 608.483 824.915 628.957 833.563C641.634 830.251 653.881 825.967 665.243 821.322C675.333 817.217 684.689 812.812 692.966 808.621C689.535 808.021 685.016 807.194 680.018 806.051C659.853 801.415 632.179 791.582 637.015 770.593C639.553 759.567 645.691 757.606 655.098 759.755C660.272 760.944 666.381 763.407 673.467 766.275C689.808 772.882 711.392 781.595 737.321 780.975C745.206 774.882 752.829 768.281 760.121 761.279C766.857 754.796 773.32 747.929 779.451 740.742C762.154 741.174 743.121 739.346 727.538 735.615C712.74 732.073 700.964 726.744 696.607 719.901C695.269 718.416 694.231 716.907 693.447 715.382C691.129 710.836 691.107 706.212 692.236 702.208C693.379 698.228 695.677 694.849 698.025 692.695C698.928 691.89 699.834 691.233 700.702 690.795C709.595 686.246 721.41 691.899 736.081 698.897C753.38 707.159 774.775 717.368 799.37 714.533C804.374 707.109 809.048 699.43 813.304 691.598C817.056 684.719 820.497 677.674 823.612 670.52C811.908 673.945 782.475 665.463 773.924 662.998C773.13 662.766 772.57 662.596 771.966 662.435C768.028 661.386 765.173 659.561 763.22 657.411C761.444 655.455 760.398 653.191 759.942 650.98C759.473 648.744 759.58 646.537 760.079 644.663C760.572 642.81 761.473 641.231 762.605 640.195C769.265 634.153 778.155 636.52 789.682 639.567C801.501 642.693 816.2 646.606 833.87 642.575C837.699 629.761 840.401 616.708 841.852 603.575C843.201 591.291 843.421 578.937 842.416 566.633L590.934 682.075C604.956 692.14 614.419 700.823 622.574 708.302C636.163 720.78 645.997 729.792 667.428 736.103C668.085 736.299 668.466 736.985 668.284 737.668C668.088 738.327 667.402 738.708 666.72 738.526C644.705 732.06 634.687 722.873 620.867 710.167C612.562 702.544 602.882 693.656 588.292 683.295L536.039 707.291C559.208 722.675 571.712 740.798 582.537 756.51C593.604 772.579 602.914 786.07 620.164 791.143L620.206 791.07Z" fill="url(#paint3_linear_1_3)" fill-opacity="0.8"/>
<defs>
<linearGradient id="paint0_linear_1_3" x1="522.199" y1="454.501" x2="609.63" y2="128.207" gradientUnits="userSpaceOnUse">
<stop stop-color="#21021D"/>
<stop offset="1" stop-color="#170214"/>
</linearGradient>
<linearGradient id="paint1_linear_1_3" x1="423.967" y1="540.598" x2="33.2425" y2="600.501" gradientUnits="userSpaceOnUse">
<stop stop-color="#1E0019"/>
<stop offset="1" stop-color="#160017"/>
</linearGradient>
<linearGradient id="paint2_linear_1_3" x1="336.5" y1="17.5" x2="361.503" y2="1190.18" gradientUnits="userSpaceOnUse">
<stop offset="0.0555629" stop-color="#180115"/>
<stop offset="1" stop-color="#660F41"/>
</linearGradient>
<linearGradient id="paint3_linear_1_3" x1="813.627" y1="719.029" x2="418.398" y2="613.817" gradientUnits="userSpaceOnUse">
<stop stop-color="#220128"/>
<stop offset="1" stop-color="#160017"/>
</linearGradient>
</defs>
</svg>
