<svg width="590" height="1190" viewBox="0 0 590 1190" fill="none" xmlns="http://www.w3.org/2000/svg">
<path fill-rule="evenodd" clip-rule="evenodd" d="M-29.9267 732.022L-28.6501 733.968C-24.2867 740.649 -23.2688 742.236 -20.9388 745.983C-20.8111 746.177 -23.4858 748.028 -25.5728 749.467C-26.745 750.262 -27.7588 750.985 -28.4001 751.601C-33.0487 756.253 -38.621 762.148 -44.8809 768.805C-69.3034 794.751 -104.328 831.95 -131.962 844.634C-136.683 846.789 -145.098 835.143 -152.843 824.474C-156.181 819.832 -159.42 815.38 -162.319 812.137L-29.9574 732.021L-29.9267 732.022ZM18.116 518.519C17.348 518.67 16.6064 518.855 15.9433 519.138C11.7019 520.779 8.81808 524.705 7.38054 530.147C6.03976 535.271 5.97775 541.802 7.3061 549.032C8.14136 553.506 9.48262 558.279 11.3571 563.113C15.569 573.975 21.7194 583.38 28.2379 589.859C35.0317 596.55 42.3317 600.15 48.5564 599.008C49.3243 598.856 50.066 598.672 50.7291 598.388C54.9705 596.748 57.8543 592.822 59.2919 587.379C60.6326 582.256 60.6946 575.725 59.3663 568.495C58.531 564.02 57.1897 559.247 55.3152 554.414C51.1034 543.552 44.953 534.146 38.4344 527.667C31.6407 520.977 24.3407 517.377 18.116 518.519ZM137.068 470.416C135.343 469.498 133.576 468.934 131.858 468.736C128.929 468.369 126.183 469.012 123.731 470.499C121.341 471.963 119.31 474.218 117.744 477.127C116.324 479.812 115.316 483.085 114.827 486.807C113.974 493.696 115.121 500.935 117.711 507.112C120.321 513.381 124.437 518.563 129.386 521.203C131.111 522.122 132.877 522.685 134.596 522.883C137.525 523.25 140.271 522.607 142.723 521.12C145.113 519.656 147.144 517.401 148.71 514.493C150.13 511.807 151.137 508.535 151.626 504.812C152.48 497.923 151.333 490.684 148.743 484.507C146.133 478.239 142.017 473.056 137.068 470.416ZM279.862 597.558C281.349 595.33 282.333 593.044 282.836 590.763C283.701 586.904 283.209 583.099 281.536 579.637C279.887 576.238 277.09 573.157 273.326 570.654C269.841 568.333 265.489 566.512 260.398 565.356C251.008 563.225 240.82 563.85 231.951 566.577C222.96 569.32 215.28 574.223 211.027 580.66C209.539 582.888 208.555 585.173 208.053 587.455C207.188 591.313 207.68 595.119 209.352 598.58C211.002 601.979 213.799 605.061 217.563 607.564C221.047 609.884 225.4 611.705 230.49 612.862C239.88 614.993 250.069 614.368 258.938 611.641C267.929 608.898 275.608 603.995 279.862 597.558ZM204.659 493.65C204.968 494.615 206.017 495.156 206.983 494.848C207.949 494.539 208.49 493.492 208.181 492.526C203.928 479.411 201.83 464.535 201.243 449.562C200.543 431.668 201.984 413.691 204.504 398.597C204.679 397.597 203.978 396.647 202.977 396.472C201.977 396.296 201.026 396.997 200.851 397.996C198.307 413.297 196.836 431.541 197.535 449.705C198.146 464.98 200.293 480.222 204.659 493.65ZM39.0906 666.028L13.7393 690.398C13.7325 690.457 13.6927 690.542 13.6858 690.601C13.4593 691.265 12.8977 691.71 12.2517 691.846L4.55614 699.236C14.0011 714.958 22.2953 727.13 32.238 737.753C42.368 748.576 54.2396 757.831 70.8511 767.632C71.7217 768.152 72.04 769.298 71.4899 770.165C70.9694 771.034 69.8221 771.352 68.9549 770.802C52.0378 760.786 39.9171 751.352 29.548 740.262C19.553 729.574 11.2258 717.428 1.82637 701.831L-26.8008 729.361C-25.8012 730.586 -24.2488 732.744 -22.6198 735.541C-3.3119 768.834 17.0861 796.315 44.0109 816.391C70.906 836.463 104.443 849.174 150.106 852.995C161.375 853.934 172.332 853.667 183.001 852.257C192.325 851.052 201.39 848.978 210.184 846.122C190.88 838.321 173.515 829.333 158.808 820.2C140.568 808.892 126.385 797.302 117.548 787.497C112.043 781.345 109.721 775.709 109.986 771.062C110.186 767.756 111.676 764.989 114.286 762.92C116.734 760.953 120.157 759.638 124.387 759.136C135.438 757.8 152.464 761.921 172.085 774.258C216.14 801.975 235.892 803.022 264.413 804.568C268.768 804.8 273.362 805.059 278.392 805.429C289.641 795.329 300.29 783.931 310.311 771.471C319.908 759.561 328.959 746.659 337.403 733.027C318.348 738.449 265.552 739.173 217.539 731.752C180.202 725.981 145.527 715.328 131.421 698.109C125.895 691.355 123.604 683.624 124.187 676.223C124.492 672.27 125.624 668.441 127.505 664.88C129.383 661.348 132.004 658.141 135.321 655.404C142.513 649.515 152.939 646.038 165.97 647.06C169.986 647.372 177.815 651.333 188.714 656.787C226.48 675.773 301.872 713.668 366.852 678.061C373.245 664.253 379.14 650.088 384.548 635.716C389.174 623.444 393.429 611.009 397.328 598.533C395.585 600.371 393.764 602.111 391.893 603.754C381.239 613.113 368.837 619.152 357.393 621.551C345.735 623.987 334.963 622.656 327.781 617.24C326.652 616.36 325.566 615.365 324.612 614.266C307.603 594.883 311.705 580.39 325.157 568.625C337.143 558.13 356.631 550 374.855 542.413C396.171 533.532 415.659 525.402 417.958 515.86C420.172 503.94 422.063 492.222 423.553 480.848C424.82 471.158 425.859 461.62 426.626 452.352C420.134 458.412 407.855 467.553 395.628 475.711C381.381 485.255 367.069 493.533 361.873 494.074C354.668 494.863 348.722 493.578 344.05 490.881C339.095 488.031 335.638 483.644 333.583 478.549C331.581 473.52 330.985 467.753 331.761 462.055C332.755 454.732 336.047 447.524 341.542 442.04C352.419 431.267 368.514 425.745 384.36 420.312C401.735 414.367 418.892 408.486 427.777 395.985C426.74 375.803 423.899 358.262 419.25 344.412C415.045 331.931 409.375 322.522 402.182 316.954L207.176 504.382C218.205 506.882 228.478 509.955 238.606 512.981C269.219 522.146 298.236 530.827 338.37 520.697C339.359 520.451 340.371 521.047 340.617 522.035C340.863 523.023 340.267 524.034 339.278 524.28C298.155 534.687 268.673 525.862 237.563 516.55C226.712 513.29 215.683 510.01 203.999 507.465L106.854 600.812C124.826 604.532 139.549 610.397 154.017 616.143C173.531 623.939 192.588 631.533 218.449 633.223C219.463 633.28 220.23 634.178 220.173 635.191C220.117 636.204 219.218 636.97 218.204 636.913C191.717 635.181 172.404 627.468 152.659 619.585C137.679 613.601 122.41 607.523 103.614 603.918L42.3467 662.805C61.7679 667.502 77.1383 681.298 93.8671 696.331C113.917 714.326 136.005 734.174 169.375 741.828C170.369 742.062 171.004 743.065 170.769 744.057C170.535 745.05 169.531 745.684 168.538 745.45C134.261 737.602 111.763 717.406 91.3939 699.076C74.3367 683.765 58.7493 669.764 39.1143 665.882L39.0906 666.028ZM-29.8175 499.148C-29.7312 498.139 -30.4686 497.244 -31.5055 497.124C-32.5161 497.038 -33.4115 497.775 -33.5309 498.81C-36.0081 526.564 -22.1693 547.142 -5.66139 571.656C10.1783 595.193 28.5054 622.406 36.7526 663.118L11.0968 687.783C-6.36603 681.722 -22.3603 674.901 -36.3428 665.733C-50.631 656.349 -62.8641 644.504 -72.4532 628.464C-72.9833 627.594 -74.1182 627.283 -74.9896 627.812C-75.8611 628.342 -76.1719 629.475 -75.6418 630.346C-65.7254 646.933 -53.1149 659.152 -38.38 668.826C-24.5647 677.885 -8.92613 684.665 8.09231 690.674L-29.6123 726.906C-30.3121 726.465 -30.8384 726.345 -31.1357 726.58C-53.8946 714.122 -70.006 704.408 -82.1013 695.008C-94.613 685.319 -102.868 675.941 -109.833 664.222C-126.269 636.478 -132.215 608.623 -130.877 581.64C-129.656 556.71 -122.21 532.467 -111.147 509.66C-108.513 533.175 -100.921 555.342 -91.4912 573.282C-79.1363 596.838 -63.5355 613.33 -51.7559 616.606C-46.9861 617.936 -42.169 617.291 -38.0713 615.334C-33.6567 613.234 -30.03 609.633 -27.9743 605.342C-19.746 588.116 -32.6305 569.418 -48.1713 546.935C-64.0158 523.967 -82.6675 496.957 -83.4795 464.145C-72.073 448.516 -59.564 434.002 -47.0378 420.901C-35.9403 409.254 -24.8273 398.779 -14.5925 389.672C-15.6234 394.711 -16.9307 401.368 -18.0634 408.855C-22.5954 439.071 -24.0474 482.419 7.41006 487.122C23.9352 489.596 29.9481 482.222 32.0817 468.132C33.2451 460.38 33.1649 450.653 33.0546 439.365C32.8114 413.337 32.5091 378.964 47.3821 343.669C60.0177 336.128 73.211 329.221 86.7772 322.987C99.3272 317.235 112.26 312.068 125.45 307.529C115.505 331.064 107.724 358.208 104.424 381.639C101.291 403.89 102.246 422.953 109.295 432.642C110.611 435.283 112.124 437.526 113.796 439.428C118.789 445.072 125.132 447.602 131.244 448.216C137.331 448.797 143.218 447.466 147.448 445.404C149.041 444.598 150.434 443.709 151.505 442.753C162.566 432.992 161.186 413.699 159.503 389.754C157.503 361.515 155.043 326.593 172.238 294.328C185.145 291.466 198.225 289.195 211.289 287.581C222.771 286.145 234.313 285.226 245.828 284.813C234.792 299.046 230.534 344.079 229.297 357.162C229.187 358.379 229.118 359.24 229.012 360.158C228.324 366.136 229.289 371.046 231.187 374.893C232.915 378.391 235.46 381.053 238.253 382.874C241.071 384.729 244.162 385.774 247.006 386.102C249.821 386.426 252.476 386.043 254.512 385.048C266.417 379.162 267.972 365.666 270.016 348.178C272.113 330.246 274.684 307.93 289.777 285.828C309.457 287.495 328.854 290.84 347.687 295.948C365.296 300.736 382.392 307.114 398.757 315.148L104.133 598.31C97.8849 573.599 91.069 555.9 85.2015 540.649C75.403 515.228 68.3352 496.841 71.2514 463.979C71.3378 462.969 70.6003 462.075 69.5635 461.955C68.5528 461.869 67.6575 462.605 67.5381 463.641C64.5202 497.391 71.7273 516.125 81.7154 541.987C87.7002 557.521 94.6795 575.629 101.029 601.281L39.7987 660.112C31.1871 619.954 13.0431 592.973 -2.69486 569.6C-18.7928 545.704 -32.2978 525.614 -29.9414 499.166L-29.8175 499.148Z" fill="url(#paint0_linear_704_436)"/>
<path fill-rule="evenodd" clip-rule="evenodd" d="M14.5095 899.945L14.3756 900.889C13.9104 904.125 13.7942 904.889 13.4972 906.673C13.4838 906.767 12.1599 906.613 11.1283 906.491C10.5526 906.418 10.045 906.366 9.68106 906.382C6.9917 906.556 3.68178 906.862 -0.0456956 907.216C-14.5816 908.591 -35.4251 910.559 -47.3604 906.984C-49.3962 906.369 -48.8339 900.509 -48.3303 895.13C-48.1008 892.798 -47.8929 890.552 -47.9073 888.77L14.5003 899.936L14.5095 899.945ZM87.0676 847.251C86.7904 847.089 86.5122 846.945 86.2315 846.853C84.4825 846.21 82.5327 846.638 80.6176 847.924C78.8186 849.137 77.0322 851.13 75.4845 853.714C74.5306 855.317 73.6517 857.149 72.9205 859.143C71.2772 863.625 70.6245 868.184 70.877 871.941C71.1569 875.838 72.4289 878.921 74.6533 880.254C74.9306 880.416 75.2087 880.56 75.4894 880.652C77.2385 881.295 79.1883 880.867 81.1033 879.581C82.9024 878.368 84.6887 876.375 86.2365 873.791C87.1903 872.188 88.0692 870.356 88.8005 868.362C90.4438 863.88 91.0965 859.322 90.844 855.564C90.5641 851.667 89.292 848.584 87.0676 847.251ZM136.686 864.639C136.404 863.889 136.013 863.238 135.538 862.712C134.736 861.806 133.717 861.261 132.56 861.055C131.428 860.859 130.193 861.003 128.924 861.474C127.761 861.916 126.565 862.651 125.407 863.664C123.28 865.552 121.674 868.09 120.8 870.692C119.906 873.327 119.771 876.035 120.579 878.187C120.861 878.937 121.252 879.588 121.727 880.114C122.529 881.019 123.548 881.565 124.705 881.771C125.837 881.967 127.072 881.823 128.341 881.351C129.504 880.909 130.7 880.175 131.858 879.162C133.985 877.273 135.591 874.735 136.465 872.134C137.359 869.499 137.494 866.79 136.686 864.639ZM146.218 942.401C147.279 942.118 148.2 941.681 148.972 941.115C150.282 940.162 151.161 938.858 151.583 937.34C151.995 935.848 151.968 934.143 151.488 932.354C151.043 930.697 150.197 928.959 148.943 927.226C146.631 924.029 143.327 921.464 139.86 919.903C136.351 918.314 132.661 917.745 129.61 918.574C128.55 918.857 127.629 919.295 126.857 919.86C125.546 920.814 124.668 922.118 124.246 923.635C123.834 925.128 123.86 926.833 124.341 928.621C124.785 930.279 125.632 932.017 126.885 933.75C129.198 936.947 132.502 939.511 135.969 941.072C139.478 942.662 143.168 943.231 146.218 942.401ZM151.197 890.078C151.03 890.459 151.207 890.909 151.587 891.076C151.968 891.242 152.418 891.066 152.584 890.686C154.825 885.499 158.205 880.354 162.076 875.588C166.703 869.893 172.011 864.751 176.871 860.789C177.195 860.528 177.237 860.046 176.976 859.722C176.716 859.397 176.234 859.355 175.909 859.615C170.986 863.635 165.596 868.85 160.896 874.629C156.951 879.494 153.487 884.765 151.197 890.078ZM53.6044 898.315L39.2093 898.953C39.1912 898.97 39.1558 898.985 39.1377 899.002C38.8884 899.144 38.5951 899.129 38.3597 898.996L33.992 899.188C32.6436 906.581 31.9018 912.571 32.0867 918.53C32.2748 924.602 33.4232 930.662 35.8824 938.173C36.0095 938.569 35.7973 939.008 35.3936 939.125C34.9981 939.252 34.5591 939.039 34.441 938.635C31.9461 930.976 30.7694 924.793 30.5801 918.574C30.3969 912.581 31.1212 906.59 32.4497 899.248L16.1913 899.972C16.1674 900.619 16.0611 901.703 15.8055 903.005C12.7371 918.474 11.5771 932.45 14.4292 945.913C17.2732 959.367 24.1527 972.354 37.1692 985.886C40.3827 989.225 43.8263 992.107 47.4907 994.561C50.6858 996.713 54.0364 998.528 57.5148 1000.03C53.6865 992.405 50.7754 984.94 48.7211 978.15C46.169 969.735 44.9412 962.33 44.8754 956.922C44.8464 953.539 45.6569 951.177 46.9959 949.819C47.9522 948.856 49.1594 948.407 50.5222 948.477C51.8077 948.534 53.217 949.056 54.6546 950.046C58.4163 952.626 62.54 958.501 65.239 967.607C71.2941 988.057 77.0886 993.724 85.446 1001.92C86.7235 1003.17 88.0666 1004.49 89.5143 1005.97C95.709 1005.9 102.07 1005.28 108.525 1004.15C114.701 1003.09 120.977 1001.57 127.265 999.656C119.934 996.168 103.493 982.104 90.7276 966.828C80.8005 954.948 73.0139 942.287 73.333 933.172C73.4606 929.598 74.8476 926.599 77.0296 924.48C78.1934 923.346 79.5776 922.474 81.1201 921.887C82.6538 921.309 84.328 921.031 86.0893 921.087C89.896 921.221 94.0451 922.972 97.7782 926.813C98.9294 927.996 100.267 931.333 102.144 935.961C108.627 952.023 121.57 984.084 151.2 990.712C156.904 988.194 162.551 985.43 168.104 982.472C172.849 979.947 177.523 977.272 182.099 974.488C181.065 974.582 180.034 974.625 179.013 974.624C173.203 974.621 167.752 973.123 163.582 970.764C159.336 968.359 156.381 965.034 155.637 961.425C155.527 960.848 155.462 960.248 155.466 959.652C155.478 949.085 160.662 945.736 167.985 945.756C174.513 945.77 182.709 948.542 190.37 951.139C199.332 954.175 207.529 956.947 210.818 954.633C214.725 951.564 218.478 948.47 222.015 945.374C225.026 942.735 227.927 940.081 230.671 937.437C227.034 937.545 220.782 937.035 214.812 936.236C207.845 935.318 201.202 933.992 199.457 932.752C197.026 931.045 195.544 929.041 194.836 926.946C194.083 924.729 194.207 922.443 194.953 920.32C195.698 918.23 197.075 916.295 198.856 914.751C201.143 912.767 204.106 911.44 207.282 911.239C213.543 910.868 219.99 913.524 226.336 916.141C233.291 919.013 240.162 921.847 246.279 920.404C251.421 913.914 255.294 907.747 257.611 902.228C259.694 897.25 260.496 892.82 259.789 889.16L149.067 894.062C151.784 897.816 154.113 901.541 156.411 905.213C163.35 916.317 169.93 926.841 185.02 934.584C185.391 934.776 185.541 935.233 185.35 935.604C185.158 935.974 184.701 936.124 184.33 935.932C168.86 928.006 162.177 917.313 155.124 906.029C152.668 902.089 150.161 898.096 147.255 894.151L92.103 896.585C96.6264 902.593 99.5697 908.382 102.467 914.065C106.361 921.745 110.17 929.238 117.67 936.757C117.967 937.048 117.96 937.532 117.668 937.829C117.377 938.125 116.893 938.118 116.596 937.826C108.915 930.125 105.059 922.526 101.117 914.757C98.1272 908.862 95.0736 902.86 90.2655 896.664L55.4785 898.204C60.1835 904.905 61.1795 913.31 62.2589 922.462C63.5588 933.425 64.9842 945.509 73.1811 956.895C73.4234 957.236 73.3474 957.716 73.0066 957.958C72.6659 958.2 72.1855 958.123 71.9432 957.782C63.5199 946.092 62.0623 933.79 60.7553 922.637C59.6499 913.311 58.6425 904.784 53.6514 898.276L53.6044 898.315ZM77.5604 828.319C77.8602 828.032 77.8754 827.557 77.5887 827.24C77.3011 826.94 76.8263 826.924 76.5092 827.21C68.2365 835.08 66.9262 845.157 65.3721 857.166C63.8768 868.695 62.152 882.028 53.6725 896.787L39.1039 897.434C35.3706 890.843 32.295 884.416 30.4736 877.811C28.6163 871.058 28.0577 864.102 29.4475 856.572C29.5201 856.161 29.2549 855.758 28.8435 855.685C28.4321 855.612 28.0297 855.877 27.9572 856.288C26.52 864.075 27.0935 871.248 29.0095 878.212C30.8091 884.738 33.7863 891.056 37.3968 897.51L15.9907 898.456C15.8945 898.131 15.7652 897.951 15.61 897.943C11.9783 887.951 9.6495 880.602 8.47173 874.437C7.24364 868.07 7.2413 862.95 8.26943 857.459C10.7201 844.475 16.4281 834.295 24.1415 826.354C31.2635 819.014 40.1151 813.569 49.6908 809.545C44.138 817.493 40.4753 826.369 38.5222 834.441C35.9496 845.032 36.287 854.328 39.0249 858.524C40.1329 860.224 41.7895 861.329 43.58 861.836C45.5067 862.384 47.597 862.258 49.3908 861.494C56.584 858.42 57.6793 849.18 58.9815 838.056C60.3214 826.702 61.8913 813.343 70.5207 803.027C78.2599 801.305 86.0364 800.224 93.436 799.583C100.002 799.002 106.256 798.786 111.87 798.753C110.189 800.025 107.986 801.72 105.611 803.717C96.0399 811.788 83.863 824.733 92.2696 834.693C96.685 839.926 100.531 839.284 105 835.526C107.456 833.455 110.063 830.441 113.084 826.938C120.053 818.863 129.261 808.205 143.389 801.369C149.317 802.468 155.246 803.913 161.107 805.666C166.525 807.292 171.903 809.202 177.19 811.375C167.761 815.925 158.021 822.172 150.665 828.489C143.68 834.487 138.815 840.611 138.362 845.5C138.053 846.669 137.911 847.768 137.911 848.806C137.92 851.894 139.187 854.389 140.902 856.232C142.617 858.058 144.789 859.241 146.648 859.751C147.357 859.935 148.026 860.038 148.614 860.034C154.659 860.023 159.455 853.714 165.417 845.89C172.443 836.66 181.136 825.249 195.159 819.974C199.904 822.586 204.544 825.427 209 828.465C212.922 831.131 216.722 833.971 220.377 836.96C213.13 838.353 199.633 851.057 195.713 854.748C195.349 855.093 195.095 855.339 194.814 855.593C192.984 857.246 191.953 859.018 191.496 860.716C191.081 862.26 191.144 863.768 191.51 865.083C191.875 866.417 192.544 867.575 193.33 868.445C194.108 869.307 195.029 869.907 195.925 870.152C201.181 871.563 205.311 867.831 210.673 863.003C216.17 858.052 223 851.882 233.626 849.165C239.23 855.004 244.293 861.282 248.706 867.95C252.828 874.189 256.363 880.777 259.224 887.678L91.9432 895.079C96.7075 885.785 99.3998 878.494 101.721 872.214C105.585 861.74 108.386 854.17 118.176 844.848C118.476 844.56 118.491 844.085 118.205 843.768C117.917 843.468 117.442 843.452 117.125 843.739C107.064 853.307 104.212 861.022 100.287 871.682C97.9245 878.082 95.1719 885.542 90.184 895.153L55.4232 896.686C63.6405 881.999 65.359 868.787 66.8412 857.337C68.3545 845.628 69.6353 835.791 77.5175 828.291L77.5604 828.319Z" fill="url(#paint1_linear_704_436)"/>
<defs>
<linearGradient id="paint0_linear_704_436" x1="-131.1" y1="541.169" x2="409.506" y2="603.454" gradientUnits="userSpaceOnUse">
<stop stop-color="#21021D"/>
<stop offset="1" stop-color="#170214"/>
</linearGradient>
<linearGradient id="paint1_linear_704_436" x1="266.137" y1="874.535" x2="-815.211" y2="420.118" gradientUnits="userSpaceOnUse">
<stop offset="0.0555629" stop-color="#180115"/>
<stop offset="1" stop-color="#660F41"/>
</linearGradient>
</defs>
</svg>
