<svg width="226" height="168" viewBox="0 0 226 168" fill="none" xmlns="http://www.w3.org/2000/svg">
<path fill-rule="evenodd" clip-rule="evenodd" d="M48.2624 106.187L48.4041 106.907C48.8853 109.375 48.9942 109.959 49.2298 111.33C49.2439 111.402 48.2433 111.625 47.4631 111.797C47.0265 111.89 46.6447 111.981 46.3844 112.085C44.4749 112.891 42.1481 113.951 39.5303 115.152C29.3199 119.829 14.6782 126.534 5.10401 126.958C3.46979 127.026 2.39511 122.627 1.39968 118.593C0.976257 116.841 0.558739 115.157 0.0972828 113.866L48.2535 106.183L48.2624 106.187ZM87.63 49.5492C87.3878 49.5023 87.1494 49.4681 86.9221 49.4722C85.489 49.4478 84.181 50.2519 83.1153 51.6704C82.1157 53.0072 81.3225 54.9068 80.8522 57.1754C80.5651 58.5811 80.3902 60.1339 80.3638 61.7678C80.3045 65.4392 80.984 68.9154 82.1184 71.5808C83.3079 74.3407 85.0122 76.2582 86.9652 76.6635C87.2074 76.7105 87.4459 76.7446 87.6731 76.7406C89.1063 76.765 90.4143 75.9608 91.48 74.5424C92.4796 73.2055 93.2728 71.306 93.743 69.0373C94.0302 67.6316 94.2051 66.0788 94.2314 64.4449C94.2908 60.7735 93.6113 57.2974 92.4769 54.6319C91.2873 51.8721 89.5831 49.9545 87.63 49.5492ZM128.071 49.6219C127.677 49.1489 127.228 48.7748 126.75 48.5131C125.938 48.0581 125.06 47.92 124.167 48.0631C123.296 48.2069 122.435 48.6244 121.633 49.2877C120.899 49.9033 120.217 50.7393 119.632 51.7681C118.565 53.6783 118.041 55.9282 118.064 58.0392C118.082 60.1792 118.669 62.1809 119.801 63.5391C120.195 64.0121 120.644 64.3862 121.122 64.6479C121.934 65.1029 122.812 65.241 123.705 65.0979C124.576 64.9541 125.437 64.5367 126.239 63.8733C126.973 63.2578 127.655 62.4217 128.24 61.3929C129.307 59.4827 129.831 57.2328 129.808 55.1218C129.79 52.9818 129.203 50.9801 128.071 49.6219ZM154.675 103.693C155.374 103.219 155.932 102.668 156.35 102.062C157.06 101.038 157.368 99.8685 157.291 98.6593C157.213 97.4711 156.762 96.2394 155.96 95.0619C155.218 93.9706 154.163 92.9223 152.814 91.9806C150.325 90.2437 147.276 89.2172 144.363 88.9607C141.412 88.6944 138.588 89.2146 136.582 90.5893C135.883 91.0632 135.324 91.6139 134.907 92.2203C134.196 93.2443 133.888 94.4138 133.966 95.6231C134.044 96.8113 134.495 98.0429 135.297 99.2205C136.039 100.312 137.094 101.36 138.443 102.302C140.932 104.039 143.981 105.065 146.894 105.322C149.845 105.588 152.669 105.068 154.675 103.693ZM145.049 64.428C145.025 64.7465 145.267 65.0288 145.586 65.0534C145.904 65.078 146.187 64.8364 146.211 64.5179C146.526 60.1838 147.679 55.5909 149.285 51.1497C151.204 45.8418 153.758 40.7636 156.286 36.6554C156.455 36.3844 156.363 36.0237 156.092 35.8538C155.821 35.6839 155.46 35.7754 155.29 36.0464C152.732 40.2122 150.137 45.3646 148.185 50.7512C146.55 55.2839 145.368 59.989 145.049 64.428ZM76.2469 95.1091L65.9524 99.2158C65.9434 99.2322 65.9216 99.2524 65.9126 99.2689C65.7677 99.4358 65.5509 99.4991 65.3462 99.462L62.2221 100.706C63.1138 106.418 64.091 110.957 65.7333 115.238C67.4066 119.601 69.7744 123.712 73.4615 128.545C73.654 128.801 73.6109 129.173 73.3474 129.361C73.0922 129.553 72.7196 129.509 72.5316 129.246C68.7808 124.314 66.3614 120.121 64.6501 115.652C63.0003 111.344 62.0103 106.81 61.117 101.14L49.4908 105.781C49.6374 106.257 49.8345 107.072 49.9782 108.082C51.6643 120.094 54.3587 130.539 59.8376 139.597C65.3083 148.649 73.5918 156.341 86.4713 162.877C89.6503 164.488 92.8812 165.711 96.1637 166.565C99.0293 167.32 101.922 167.79 104.829 168C100.118 163.431 96.1148 158.746 92.9043 154.334C88.9208 148.867 86.1551 143.8 84.7386 139.888C83.8614 137.438 83.8522 135.517 84.4811 134.192C84.9321 133.25 85.6955 132.619 86.703 132.325C87.6512 132.041 88.8069 132.063 90.1017 132.419C93.4869 133.34 97.969 136.564 102.234 142.495C111.808 155.817 117.451 158.467 125.595 162.303C126.839 162.888 128.149 163.509 129.574 164.214C134.058 162.6 138.52 160.536 142.925 158.087C147.14 155.748 151.314 153.056 155.398 150.077C149.191 149.399 133.689 143.344 120.551 135.479C110.334 129.362 101.474 122.137 99.3984 115.435C98.5867 112.807 98.8352 110.277 99.8837 108.186C100.442 107.068 101.227 106.084 102.199 105.267C103.166 104.459 104.312 103.834 105.606 103.428C108.405 102.562 111.862 102.785 115.545 104.629C116.681 105.197 118.497 107.283 121.031 110.169C129.805 120.195 147.321 140.208 170.52 137.523C174.026 134.25 177.428 130.814 180.713 127.26C183.52 124.225 186.238 121.099 188.858 117.919C188.131 118.249 187.392 118.541 186.651 118.799C182.429 120.267 178.091 120.558 174.465 119.901C170.772 119.228 167.785 117.561 166.331 115.127C166.105 114.736 165.906 114.317 165.758 113.883C163.093 106.205 166.01 102.46 171.335 100.621C176.08 98.9793 182.735 98.9183 188.957 98.8659C196.234 98.8028 202.89 98.7419 204.694 96.2287C206.755 93.0109 208.697 89.8138 210.483 86.6697C212.003 83.9907 213.438 81.3292 214.762 78.7142C212.147 79.7131 207.477 80.9247 202.938 81.8555C197.646 82.9513 192.484 83.6696 190.903 83.2109C188.706 82.5862 187.122 81.5053 186.078 80.1632C184.97 78.7429 184.481 77.0518 184.486 75.3203C184.498 73.6143 185.008 71.8597 185.911 70.288C187.071 68.2678 188.887 66.554 191.143 65.6046C195.597 63.7502 200.952 64.048 206.223 64.3424C212.002 64.6686 217.71 64.988 221.788 62.3924C223.881 56.3765 225.133 50.9174 225.419 46.3217C225.673 42.1786 225.134 38.7581 223.694 36.2788L144.511 67.8603C147.434 69.8993 150.069 72.0157 152.667 74.1013C160.518 80.4108 167.96 86.3896 180.881 88.1948C181.199 88.2404 181.423 88.5347 181.378 88.8524C181.333 89.1701 181.039 89.3945 180.721 89.3489C167.478 87.5068 159.917 81.4309 151.939 75.0196C149.158 72.7801 146.327 70.5133 143.217 68.3833L103.773 84.1096C108.579 87.3289 112.182 90.7888 115.724 94.1835C120.497 98.7759 125.16 103.255 132.51 106.818C132.8 106.955 132.917 107.308 132.78 107.597C132.644 107.886 132.29 108.003 132.001 107.866C124.473 104.217 119.749 99.6725 114.919 95.0276C111.256 91.5023 107.519 87.9154 102.458 84.6319L77.5802 94.5544C82.6935 98.2308 85.544 104.083 88.6443 110.458C92.3629 118.092 96.4565 126.509 105.292 132.704C105.554 132.891 105.62 133.259 105.434 133.521C105.248 133.783 104.88 133.849 104.617 133.663C95.5404 127.303 91.3682 118.736 87.5964 110.966C84.4331 104.471 81.5436 98.5331 76.2712 95.0691L76.2469 95.1091ZM75.9332 38.2042C76.0782 37.9196 75.9691 37.5709 75.6805 37.4129C75.3957 37.2677 75.0468 37.3765 74.8891 37.6648C70.8717 45.4745 72.4701 53.1254 74.3808 62.2423C76.2122 70.9947 78.3336 81.1156 75.9096 93.9819L65.4912 98.1385C61.1116 94.2964 57.2511 90.4064 54.2566 86.0698C51.1983 81.6343 49.0324 76.7235 48.1361 70.9022C48.0847 70.5851 47.7902 70.3596 47.473 70.4108C47.1557 70.4619 46.9304 70.7561 46.9818 71.0732C47.9086 77.0932 50.1404 82.1578 53.2946 86.7314C56.2532 91.0162 60.0148 94.8519 64.2707 98.6263L48.9614 104.73C48.8093 104.519 48.6699 104.421 48.5552 104.454C43.3885 98.1157 39.8372 93.3672 37.4213 89.1867C34.9179 84.8729 33.6205 81.1548 32.9778 76.9065C31.4718 66.8549 33.0416 58.016 36.6346 50.2961C39.9501 43.1619 45.0016 36.9669 50.9386 31.6207C48.9168 38.7993 48.5025 46.1729 49.1267 52.5304C49.9385 60.8745 52.5362 67.5417 55.5868 69.8964C56.8218 70.8506 58.3048 71.2342 59.7335 71.1491C61.2718 71.0598 62.7581 70.4389 63.8677 69.4298C68.3146 65.3769 66.7718 58.388 64.9025 49.9789C63.0021 41.3921 60.7618 31.2919 64.4191 21.6149C69.6046 18.4051 74.9796 15.652 80.192 13.3133C84.8146 11.2298 89.3027 9.49022 93.372 8.04569C92.4729 9.39477 91.3012 11.1833 90.0818 13.2349C85.1723 21.5198 79.6036 34.0042 88.2304 39.1112C92.7619 41.7948 95.3928 40.3553 97.688 36.4946C98.9478 34.369 100.079 31.5196 101.386 28.2105C104.405 20.5817 108.396 10.5095 116.928 1.96913C121.512 1.2669 126.184 0.81619 130.885 0.605876C135.232 0.416058 139.622 0.442058 144.012 0.682535C138.314 6.37388 132.821 13.376 129.077 19.826C125.521 25.9509 123.537 31.6306 124.445 35.296C124.516 36.2234 124.692 37.058 124.954 37.8118C125.742 40.0522 127.294 41.5438 129.006 42.4485C130.714 43.3407 132.591 43.6508 134.071 43.5508C134.632 43.5046 135.144 43.4103 135.57 43.2582C139.958 41.7207 141.845 35.924 144.195 28.7326C146.963 20.2496 150.39 9.76113 159.24 2.38097C163.348 3.0774 167.437 3.96648 171.443 5.0459C174.966 5.98941 178.445 7.09089 181.856 8.33699C176.945 11.1829 170.357 23.8265 168.443 27.4997C168.266 27.842 168.144 28.0854 168.004 28.3407C167.093 30.0045 166.792 31.5527 166.89 32.9012C166.979 34.1277 167.407 35.2071 168.006 36.0703C168.609 36.9461 169.387 37.6184 170.179 38.0516C170.962 38.4803 171.783 38.6835 172.495 38.6346C176.67 38.329 178.726 34.5728 181.398 29.7093C184.139 24.7222 187.538 18.5116 194.568 13.8494C200.117 16.672 205.383 19.9507 210.276 23.6776C214.849 27.1656 219.084 31.0569 222.909 35.3448L103.276 83.056C104.384 75.0991 104.495 69.1224 104.591 63.9728C104.748 55.3875 104.866 49.1798 109.618 39.9308C109.763 39.6463 109.654 39.2975 109.365 39.1396C109.08 38.9944 108.732 39.1032 108.574 39.3915C103.687 48.8877 103.568 55.213 103.415 63.9498C103.319 69.1959 103.207 75.3114 102.017 83.5552L77.1558 93.4657C79.4076 80.7181 77.3122 70.6865 75.4909 61.9942C73.6268 53.1061 72.0678 45.6374 75.8949 38.1946L75.9332 38.2042Z" fill="white" fill-opacity="0.1"/>
</svg>
