<svg width="466" height="679" viewBox="0 0 466 679" fill="none" xmlns="http://www.w3.org/2000/svg">
<path d="M42.0443 640.924V662.944V665.446C42.0443 666.648 42.7117 667.949 43.0454 668.449C44.7139 668.616 48.3511 668.85 49.5524 668.449C50.7537 668.049 53.7236 667.615 55.0584 667.448C62.9002 664.779 80.1855 659.04 86.5924 657.439C94.6011 655.437 104.612 655.938 113.121 655.437C121.63 654.937 134.644 657.939 146.657 659.441C158.67 660.942 167.179 657.439 170.183 656.438C172.585 655.637 175.855 654.103 177.19 653.435C181.862 653.268 193.608 652.735 203.218 651.934C215.231 650.933 215.231 654.436 217.734 658.44C220.237 662.444 225.743 663.445 238.256 663.445C250.77 663.445 254.774 661.943 263.283 657.939C271.792 653.936 283.805 653.936 297.821 654.436C311.836 654.937 320.345 662.944 323.849 665.446C327.352 667.949 335.862 668.449 339.866 668.95C343.87 669.45 356.884 669.45 360.388 669.45C363.892 669.45 368.897 672.453 371.901 673.954C374.904 675.456 384.414 677.458 389.92 677.958C394.325 678.359 395.76 675.789 395.926 674.455C396.594 666.781 398.129 649.832 398.93 643.426C399.931 635.418 402.434 578.866 402.934 573.36C403.435 567.855 405.937 526.817 406.438 521.312C406.938 515.807 409.441 495.788 409.942 492.785C410.342 490.383 411.443 475.436 411.944 468.262C412.778 456.418 414.547 431.428 414.947 426.223C415.448 419.717 417.45 395.695 418.951 386.686C420.453 377.678 419.452 360.662 418.951 356.658C418.451 352.654 417.95 343.646 417.95 339.642C417.95 335.639 417.45 322.626 417.45 321.125C417.45 319.924 416.449 313.952 415.948 311.116L415.448 303.609C415.948 303.942 417.049 304.71 417.45 305.11C417.95 305.61 420.453 307.112 421.955 308.113C423.456 309.114 426.459 317.121 426.96 318.623C427.461 320.124 430.464 325.629 431.465 327.631C432.266 329.233 433.467 329.299 433.968 329.132C435.135 328.132 437.972 325.629 439.974 323.627C442.477 321.125 440.975 318.122 440.475 316.12C439.974 314.118 439.974 312.617 440.975 311.116C441.976 309.614 443.978 308.113 446.481 306.111C448.984 304.109 454.99 300.606 457.994 299.104C460.396 297.903 462.999 295.935 464 295.101C462.832 289.929 460.196 278.185 458.995 272.58C457.493 265.573 449.484 228.038 447.482 213.024C445.48 198.01 441.976 153.969 441.476 151.467C440.975 148.964 438.472 124.441 438.472 121.939C438.472 119.937 437.138 108.76 436.47 103.422C435.469 99.9184 432.866 91.6107 430.464 86.4058C427.461 79.8997 415.448 62.8838 412.444 60.3815C409.441 57.8792 397.428 49.8717 395.426 48.8707L375.404 38.8614L351.879 27.8511C346.206 24.6815 334.56 18.2421 333.359 17.8418C332.158 17.4414 328.52 14.6721 326.852 13.3376C321.346 10.3348 309.834 4.02888 307.831 2.82776C305.829 1.62663 304.328 1.99364 303.827 2.32729C299.656 3.99551 289.411 7.83243 281.803 9.8343C274.195 11.8362 254.941 13.3376 246.265 13.838C236.588 14.0049 215.932 14.3385 210.726 14.3385C204.219 14.3385 184.198 12.3366 176.189 10.8352C168.181 9.33383 148.659 3.82869 145.656 1.82688C144.054 0.625755 142.319 0.992764 141.652 1.32641L130.139 7.83248L94.6011 27.3507C80.9196 34.0236 52.9561 47.6697 50.5535 48.8708C48.1509 50.0719 40.8764 55.7105 37.5395 58.3797C33.3683 64.8858 24.8257 78.0981 24.0249 78.8988C23.224 79.6996 23.6912 80.5671 24.0249 80.9007L24.5254 82.4021C23.1906 86.7395 20.2208 96.5153 19.0195 100.919C17.5178 106.425 16.0162 124.441 15.5157 127.945C15.0151 131.448 14.5146 139.455 13.5135 142.959C12.5124 146.462 11.0108 155.47 9.50919 162.977C8.30789 168.983 5.67171 197.176 4.50378 210.522L2.50162 246.555C2.33477 248.057 1.90097 251.46 1.50054 253.061C1.10011 254.663 1.33369 255.731 1.50054 256.064C1.33369 259.734 1 267.475 1 269.076C1 270.678 1.66739 270.745 2.00108 270.578H7.00649V282.589L9.00865 284.591L8.50811 297.603L12.0119 301.106C14.5146 303.609 25.5265 312.617 29.5308 315.119C32.7343 317.121 38.8742 317.622 41.5438 317.622C41.3769 322.126 41.1434 332.135 41.5438 336.139C41.9442 340.143 43.3791 343.146 44.0465 344.147V355.157V361.162C43.7128 362.831 42.9453 367.268 42.5449 371.672C42.0443 377.177 38.5405 427.224 38.5405 433.23C38.5405 439.235 39.0411 470.264 39.5416 474.768C40.0422 479.273 39.5416 508.8 39.0411 515.306C38.5405 521.812 38.04 565.353 38.04 568.856C38.04 572.36 40.0422 623.908 40.0422 626.911C40.0422 629.313 41.3769 637.254 42.0443 640.924Z" stroke="white" stroke-width="2"/>
</svg>
