<svg width="533" height="776" viewBox="0 0 533 776" fill="none" xmlns="http://www.w3.org/2000/svg">
<path d="M58.9091 750.678L61.1075 766.694C63.934 767.637 71.0317 769.899 76.8103 771.406C84.0336 773.291 96.2817 771.406 103.191 770.464C108.718 769.71 116.381 768.475 119.522 767.952C123.29 766.381 135.539 762.676 154.382 760.414C177.936 757.588 191.754 763.241 196.151 765.125C199.669 766.633 205.992 767.638 208.713 767.952L219.705 769.836L236.978 771.092H276.549C296.649 771.092 305.128 766.695 309.839 764.497C314.55 762.299 323.029 762.613 330.881 762.613C338.732 762.613 350.666 764.183 361.658 765.439C372.65 766.695 380.816 769.836 386.154 771.72C391.493 773.605 407.51 774.547 419.758 774.547C429.557 774.547 433.681 773.919 434.519 773.605C438.078 772.558 446.641 770.15 452.42 768.894C459.643 767.324 464.354 766.381 469.065 765.753C472.834 765.251 473.357 762.822 473.148 761.671V751.307L473.776 725.24C474.195 715.923 474.969 696.724 474.718 694.463C474.404 691.636 475.032 684.413 475.974 680.958C476.728 678.195 477.963 670.176 478.487 666.512C480.266 656.776 484.077 635.358 485.082 627.569C486.087 619.781 486.338 609.04 486.338 604.643V575.75C486.129 563.502 485.71 538.063 485.71 534.295C485.71 529.584 486.966 511.683 487.28 507.914C487.531 504.899 488.432 494.515 488.85 489.699L490.107 478.079L491.363 473.996L492.619 463.632L493.561 446.359C494.189 439.136 495.508 423.559 495.76 419.037C496.074 413.384 497.33 405.532 498.9 398.309C500.156 392.53 501.308 385.852 501.727 383.234C501.203 382.292 499.905 380.031 498.9 378.524C497.644 376.639 495.132 372.871 493.561 366.904C492.305 362.13 491.782 355.912 491.677 353.399L506.438 344.606L506.123 332.672L511.776 329.531V322.936C512.53 322.182 515.44 321.784 516.801 321.68L531.876 320.423L530.934 311.944L529.364 300.01L527.479 289.332L522.14 250.389C520.884 239.921 518.246 218.167 517.744 214.901C517.115 210.818 514.603 190.719 513.975 186.008C513.347 181.297 509.264 161.512 508.636 158.685C508.008 155.859 505.809 139.842 504.553 132.933C503.297 126.023 501.727 116.602 500.47 111.263C499.466 106.992 496.702 99.224 495.446 95.8741C492.724 90.9539 486.715 80.2341 484.454 76.7167C481.627 72.3199 471.891 66.3529 469.693 65.4107C467.495 64.4686 450.536 55.0469 447.709 53.4766L447.707 53.4755C444.872 51.9003 422.27 39.344 420.701 38.716C419.13 38.0879 397.775 26.4679 393.692 24.2695C389.609 22.0711 383.014 18.6165 382.072 17.6744C381.318 16.9206 380.083 15.8947 379.559 15.476L375.163 12.6495L373.592 12.0214C369.195 9.40406 359.774 3.72978 357.261 1.97107C354.749 0.212366 352.446 1.23828 351.608 1.97107C349.829 3.12261 345.579 5.73973 342.815 6.99595C339.36 8.56623 326.798 10.4506 318.947 12.3349C312.666 13.8424 292.252 14.4286 282.83 14.5333C279.69 14.4286 270.582 14.282 259.276 14.5333C245.144 14.8473 205.573 9.82245 200.234 9.19434C194.895 8.56623 182.333 3.54078 179.82 2.28456C177.81 1.27958 175.633 2.28456 174.795 2.91267L156.266 13.9046C155.324 14.0093 153.063 14.4071 151.555 15.1608C150.048 15.9145 148.415 18.406 147.787 19.5576L131.456 28.3511L98.4801 44.996C93.1412 47.6132 81.7724 53.1615 79.0087 54.4177C76.245 55.6739 73.0416 57.8723 71.7854 58.8145C69.1683 60.4894 62.9291 64.5931 58.9092 67.608C53.8843 71.3767 46.347 82.6826 44.4626 86.1372C42.9552 88.9009 37.3441 98.3854 34.7269 102.782V104.352C34.7269 104.666 34.5385 105.609 33.7848 106.865C32.8426 108.435 30.9583 116.601 30.0161 120.997C29.0739 125.394 26.5615 141.097 25.9334 146.436C25.3053 151.775 22.1647 167.792 21.8507 169.99C21.5366 172.188 18.3961 194.172 18.082 196.056C17.768 197.941 14.9415 220.553 14.3134 222.123C13.8109 223.379 12.8478 238.559 12.429 245.991C11.1728 254.366 8.66037 271.43 8.66037 272.686C8.66037 274.256 3.94954 292.785 3.32143 294.984C2.81894 296.743 2.27458 301.37 2.06521 303.463L1.12305 315.711L3.94954 316.34C5.6245 316.549 9.53972 317.093 11.8009 317.596C14.0621 318.098 18.1867 318.852 19.9663 319.166V322.621C19.9663 323.877 21.2226 325.028 21.8507 325.447L30.0161 329.216C29.5974 329.635 28.4458 331.037 27.1896 333.299C25.6193 336.125 24.6771 342.406 25.6193 348.059C26.5615 353.712 30.3301 362.82 33.1566 367.531C35.4178 371.299 37.4487 369.101 38.1815 367.531L39.1237 363.134L43.5204 357.167L45.0907 360.935C44.8813 362.192 44.2114 365.458 43.2064 368.473C41.9502 372.241 41.6361 375.068 40.694 380.721C39.7518 386.374 36.2972 416.523 34.7269 426.887C33.1566 437.251 34.4128 440.077 35.355 448.243C36.2972 456.408 36.9253 473.995 36.9253 486.871C36.9253 497.172 38.6002 508.541 39.4377 512.938C40.5892 521.732 43.2064 541.203 44.4626 548.74C45.7188 556.278 47.4985 572.399 48.2312 579.518L49.8015 614.378L50.7437 633.221C51.3718 643.166 52.7536 663.998 53.2561 667.767C53.8842 672.478 56.7107 717.388 57.6529 724.925C58.5951 732.462 58.9091 745.339 58.9091 747.537V750.678Z" stroke="white" stroke-width="1.25622"/>
</svg>
