<svg width="116" height="32" viewBox="0 0 116 32" fill="none" xmlns="http://www.w3.org/2000/svg">
<g clip-path="url(#clip0_704_396)">
<path d="M22.9044 2.49126C21.4348 0.808397 18.7783 0.0869141 15.3797 0.0869141H5.51631C5.18006 0.0869266 4.85484 0.207448 4.59912 0.42681C4.34341 0.646173 4.17397 0.949986 4.12127 1.28363L0.0143197 27.4523C-0.0673131 27.9683 0.33041 28.4356 0.851003 28.4356H6.94035L8.46964 18.6904L8.42218 18.9955C8.53113 18.3067 9.11754 17.7986 9.81194 17.7986H12.7056C18.3901 17.7986 22.8412 15.4789 24.1415 8.76856C24.1801 8.57009 24.2135 8.37693 24.2424 8.18821C24.0783 8.1009 24.0783 8.1009 24.2424 8.18821C24.6296 5.708 24.2397 4.01974 22.9044 2.49126Z" fill="#27346A"/>
<path d="M10.7997 7.29475C10.9661 7.21512 11.1482 7.17385 11.3326 7.17396H19.0654C19.981 7.17396 20.8351 7.23383 21.6156 7.36003C21.834 7.39501 22.0512 7.43678 22.2671 7.48527C22.573 7.55309 22.8753 7.63608 23.173 7.73396C23.5567 7.8627 23.9141 8.01264 24.2425 8.18821C24.6296 5.70705 24.2398 4.01974 22.9044 2.49126C21.434 0.808397 18.7783 0.0869141 15.3797 0.0869141H5.51546C4.82095 0.0869141 4.23012 0.594887 4.12127 1.28363L0.0143203 27.4514C-0.0673125 27.9682 0.33041 28.4349 0.85016 28.4349H6.94035L10.1132 8.22085C10.1444 8.02216 10.2231 7.83406 10.3427 7.67274C10.4623 7.51142 10.6191 7.3817 10.7997 7.29475Z" fill="white"/>
<path d="M24.1415 8.76784C22.8412 15.4772 18.3903 17.7979 12.7056 17.7979H9.81111C9.11671 17.7979 8.5302 18.306 8.4223 18.9948L6.51975 31.1119C6.44866 31.5635 6.79629 31.9727 7.25107 31.9727H12.3842C12.6783 31.9726 12.9626 31.8672 13.1862 31.6753C13.4098 31.4834 13.5578 31.2176 13.6038 30.9258L13.6538 30.663L14.6212 24.5029L14.6836 24.1625C14.7295 23.8707 14.8776 23.605 15.1011 23.4131C15.3246 23.2212 15.609 23.1157 15.903 23.1156H16.6712C21.6438 23.1156 25.5373 21.086 26.6751 15.2163C27.1501 12.7633 26.9043 10.7153 25.648 9.27677C25.2669 8.84106 24.7937 8.48122 24.2424 8.1875C24.2126 8.37717 24.1802 8.56938 24.1415 8.76784Z" fill="#4A4A4A"/>
<path d="M22.8817 7.64313C22.679 7.58365 22.4743 7.531 22.2681 7.48525C22.0521 7.43755 21.8349 7.39607 21.6166 7.36085C20.8353 7.2338 19.9818 7.17383 19.0653 7.17383H11.3335C11.149 7.17341 10.9668 7.21504 10.8006 7.29558C10.6198 7.38226 10.4628 7.5119 10.3432 7.67327C10.2236 7.83464 10.1449 8.02287 10.114 8.22167L8.47056 18.6903L8.4231 18.9955C8.5312 18.3067 9.11761 17.7986 9.81212 17.7986H12.7066C18.3912 17.7986 22.8421 15.4789 24.1424 8.76853C24.1811 8.57007 24.2136 8.37775 24.2434 8.18819C23.9141 8.01357 23.5578 7.86268 23.174 7.73478C23.0771 7.70253 22.9797 7.67197 22.8818 7.64313" fill="white"/>
</g>
<path d="M91.6548 11.468C91.3348 13.564 89.7238 13.564 88.1648 13.564H87.2788L87.8998 9.651C87.9178 9.5361 87.9765 9.4315 88.0651 9.35624C88.1538 9.28098 88.2665 9.24008 88.3828 9.241H88.7898C89.8518 9.241 90.8528 9.241 91.3698 9.841C91.6788 10.199 91.7708 10.731 91.6548 11.468ZM90.9768 6H85.1008C84.9071 6.00043 84.7197 6.06946 84.572 6.19485C84.4243 6.32023 84.3257 6.49388 84.2938 6.685L81.9178 21.653C81.9009 21.7579 81.9189 21.8654 81.9692 21.959C82.0194 22.0527 82.099 22.1271 82.1958 22.171C82.2605 22.201 82.3288 22.216 82.4008 22.216H85.4168C85.5523 22.2164 85.6835 22.1684 85.7868 22.0808C85.8902 21.9932 85.9589 21.8717 85.9808 21.738L86.6558 17.493C86.6875 17.3021 86.7859 17.1286 86.9335 17.0033C87.0811 16.8781 87.2683 16.8092 87.4618 16.809H89.3208C93.1908 16.809 95.4268 14.948 96.0098 11.259C96.2728 9.647 96.0198 8.379 95.2598 7.492C94.4238 6.517 92.9428 6 90.9768 6Z" fill="white"/>
<path d="M49.7422 11.468C49.4222 13.564 47.8112 13.564 46.2522 13.564H45.3672L45.9882 9.651C46.0062 9.5361 46.0649 9.4315 46.1535 9.35624C46.2422 9.28098 46.3549 9.24008 46.4712 9.241H46.8782C47.9382 9.241 48.9402 9.241 49.4582 9.841C49.7662 10.199 49.8592 10.731 49.7422 11.468ZM49.0642 6H43.1892C42.9953 6.00047 42.8078 6.06964 42.6601 6.19523C42.5123 6.32082 42.4139 6.4947 42.3822 6.686L40.0062 21.653C39.9892 21.7583 40.0074 21.8662 40.058 21.9601C40.1087 22.0539 40.1889 22.1284 40.2862 22.172C40.3502 22.202 40.4182 22.217 40.4902 22.217H43.2962C43.6972 22.217 44.0392 21.927 44.1032 21.532L44.7432 17.493C44.7734 17.3012 44.8715 17.1266 45.0196 17.0011C45.1677 16.8755 45.356 16.8074 45.5502 16.809H47.4092C51.2792 16.809 53.5152 14.948 54.0992 11.259C54.3612 9.647 54.1092 8.379 53.3492 7.492C52.5122 6.517 51.0312 6 49.0642 6ZM62.7052 16.841C62.4352 18.439 61.1582 19.511 59.5302 19.511C58.7142 19.511 58.0602 19.251 57.6402 18.756C57.2242 18.266 57.0662 17.569 57.1992 16.794C57.4522 15.21 58.7492 14.103 60.3522 14.103C61.1522 14.103 61.8002 14.367 62.2302 14.866C62.6602 15.366 62.8302 16.069 62.7052 16.841ZM66.6282 11.401H63.8142C63.698 11.4009 63.5856 11.442 63.4969 11.5171C63.4083 11.5922 63.3492 11.6964 63.3302 11.811L63.2052 12.593L63.0092 12.31C62.3992 11.431 61.0412 11.137 59.6852 11.137C56.5762 11.137 53.9212 13.477 53.4042 16.76C53.1362 18.399 53.5172 19.963 54.4522 21.055C55.3112 22.059 56.5352 22.477 57.9952 22.477C60.5022 22.477 61.8912 20.877 61.8912 20.877L61.7662 21.655C61.7497 21.76 61.7681 21.8675 61.8187 21.9609C61.8693 22.0543 61.9493 22.1285 62.0462 22.172C62.1102 22.202 62.1782 22.217 62.2502 22.217H64.7842C65.1862 22.217 65.5282 21.927 65.5902 21.532L67.1122 11.962C67.1232 11.8923 67.119 11.821 67.0997 11.7531C67.0804 11.6852 67.0465 11.6223 67.0004 11.5688C66.9544 11.5154 66.8972 11.4725 66.8329 11.4434C66.7687 11.4142 66.6988 11.4004 66.6282 11.401Z" fill="white"/>
<path d="M104.62 16.8407C104.348 18.4387 103.072 19.5107 101.444 19.5107C100.628 19.5107 99.973 19.2507 99.554 18.7557C99.137 18.2657 98.98 17.5687 99.113 16.7937C99.367 15.2097 100.663 14.1027 102.266 14.1027C103.066 14.1027 103.714 14.3667 104.142 14.8657C104.572 15.3657 104.742 16.0687 104.62 16.8407ZM108.542 11.4007H105.727C105.611 11.4008 105.499 11.4421 105.41 11.5172C105.322 11.5922 105.263 11.6963 105.244 11.8107L105.119 12.5927L104.923 12.3097C104.313 11.4307 102.955 11.1367 101.599 11.1367C98.49 11.1367 95.835 13.4767 95.318 16.7597C95.048 18.3987 95.431 19.9627 96.366 21.0547C97.225 22.0587 98.449 22.4767 99.909 22.4767C102.416 22.4767 103.805 20.8767 103.805 20.8767L103.68 21.6547C103.663 21.7597 103.682 21.8672 103.733 21.9606C103.783 22.054 103.863 22.1282 103.96 22.1717C104.024 22.2017 104.092 22.2167 104.164 22.2167H106.697C107.1 22.2167 107.442 21.9267 107.504 21.5317L109.026 11.9617C109.043 11.8567 109.025 11.7489 108.974 11.6553C108.924 11.5617 108.843 11.4877 108.746 11.4447C108.682 11.4155 108.612 11.4012 108.542 11.4007Z" fill="white"/>
<path d="M81.6151 11.4004H78.7871C78.6541 11.4007 78.5231 11.4334 78.4055 11.4956C78.2879 11.5578 78.1872 11.6476 78.1121 11.7574L74.2101 17.4654L72.5571 11.9794C72.507 11.8111 72.4036 11.6635 72.2623 11.5591C72.1211 11.4547 71.9498 11.399 71.7741 11.4004H68.9941C68.8771 11.4014 68.7643 11.4438 68.6756 11.5201C68.587 11.5965 68.5283 11.7019 68.5101 11.8174C68.4995 11.8937 68.5067 11.9714 68.5311 12.0444L71.6451 21.1264L68.7151 25.2314C68.6624 25.3043 68.6311 25.3904 68.6245 25.4801C68.618 25.5698 68.6365 25.6595 68.678 25.7393C68.7194 25.819 68.7823 25.8857 68.8595 25.9318C68.9367 25.9779 69.0252 26.0017 69.1151 26.0004H71.9401C72.072 26.0004 72.202 25.9686 72.319 25.9077C72.4359 25.8468 72.5365 25.7585 72.6121 25.6504L82.0171 12.1644C82.0681 12.0913 82.098 12.0056 82.1035 11.9167C82.1091 11.8277 82.0901 11.739 82.0486 11.6601C82.0071 11.5812 81.9447 11.5153 81.8682 11.4695C81.7918 11.4237 81.7042 11.3998 81.6151 11.4004Z" fill="white"/>
<path d="M111.858 6.41103L109.447 21.655C109.436 21.7247 109.44 21.7959 109.459 21.8638C109.479 21.9316 109.513 21.9945 109.559 22.0479C109.605 22.1013 109.662 22.144 109.726 22.173C109.791 22.2021 109.86 22.2168 109.931 22.216H112.356C112.758 22.216 113.101 21.926 113.163 21.532L115.542 6.56303C115.553 6.49315 115.549 6.42167 115.53 6.35357C115.51 6.28548 115.476 6.22242 115.43 6.1688C115.384 6.11518 115.327 6.0723 115.262 6.04314C115.198 6.01399 115.128 5.99928 115.057 6.00003H112.343C112.226 5.99945 112.113 6.04053 112.024 6.11587C111.935 6.19122 111.877 6.29588 111.858 6.41103Z" fill="white"/>
<defs>
<clipPath id="clip0_704_396">
<rect width="27" height="32" fill="white"/>
</clipPath>
</defs>
</svg>
