<svg width="32" height="32" viewBox="0 0 32 32" fill="none" xmlns="http://www.w3.org/2000/svg">
<g clip-path="url(#clip0_552_5039)">
<path d="M16 2C18.7614 2 21 4.23858 21 7V10H11V7C11 4.23858 13.2386 2 16 2Z" stroke="white" stroke-width="2"/>
<path d="M29 26C29 27.6569 27.6569 29 26 29H6C4.34315 29 3 27.6569 3 26V9H29V26ZM11 11C10.4477 11 10 11.4477 10 12C10 12.5523 10.4477 13 11 13C11.5523 13 12 12.5523 12 12C12 11.4477 11.5523 11 11 11ZM21 11C20.4477 11 20 11.4477 20 12C20 12.5523 20.4477 13 21 13C21.5523 13 22 12.5523 22 12C22 11.4477 21.5523 11 21 11Z" fill="white"/>
</g>
<defs>
<clipPath id="clip0_552_5039">
<rect width="32" height="32" fill="white"/>
</clipPath>
</defs>
</svg>
