<svg width="475" height="503" viewBox="0 0 475 503" fill="none" xmlns="http://www.w3.org/2000/svg">
<path fill-rule="evenodd" clip-rule="evenodd" d="M166.73 391.796L167.992 392.739C172.313 395.983 173.328 396.758 175.677 398.604C175.803 398.699 174.529 400.495 173.533 401.893C172.971 402.67 172.492 403.364 172.227 403.905C170.343 407.94 168.159 412.98 165.713 418.664C156.165 440.823 142.47 472.596 127.812 487.056C125.305 489.519 117.258 484.051 109.862 479.051C106.664 476.867 103.574 474.782 100.979 473.388L166.71 391.802L166.73 391.796ZM147.963 244.798C147.509 245.071 147.08 245.36 146.723 245.694C144.403 247.718 143.475 250.884 143.818 254.68C144.148 258.251 145.618 262.422 148.135 266.717C149.701 269.372 151.657 272.1 153.968 274.744C159.159 280.684 165.248 285.249 170.894 287.866C176.765 290.554 182.243 291.158 185.941 288.993C186.395 288.719 186.824 288.43 187.181 288.096C189.501 286.072 190.43 282.906 190.087 279.11C189.756 275.539 188.286 271.368 185.769 267.073C184.204 264.418 182.247 261.69 179.936 259.047C174.745 253.107 168.657 248.542 163.01 245.924C157.14 243.236 151.661 242.632 147.963 244.798ZM212.558 186.688C211.247 186.502 209.993 186.551 208.854 186.822C206.904 187.266 205.305 188.31 204.088 189.823C202.905 191.307 202.134 193.212 201.809 195.425C201.526 197.462 201.641 199.778 202.19 202.26C203.239 206.843 205.642 211.185 208.719 214.518C211.829 217.905 215.646 220.252 219.406 220.789C220.717 220.975 221.971 220.925 223.111 220.654C225.06 220.211 226.659 219.167 227.876 217.653C229.059 216.169 229.831 214.264 230.155 212.051C230.438 210.014 230.323 207.698 229.774 205.216C228.725 200.633 226.322 196.291 223.245 192.958C220.136 189.571 216.318 187.224 212.558 186.688ZM332.832 234.61C333.263 232.848 333.361 231.166 333.154 229.597C332.813 226.941 331.62 224.633 329.756 222.816C327.92 221.034 325.428 219.719 322.453 218.996C319.699 218.324 316.508 218.171 313.001 218.612C306.531 219.425 300.191 222.178 295.176 225.964C290.087 229.788 286.332 234.683 285.113 239.764C284.681 241.525 284.583 243.208 284.79 244.776C285.131 247.432 286.324 249.74 288.189 251.557C290.024 253.339 292.517 254.654 295.491 255.377C298.245 256.049 301.437 256.202 304.944 255.761C311.413 254.948 317.753 252.195 322.768 248.409C327.857 244.586 331.612 239.69 332.832 234.61ZM260.95 185.854C261.369 186.397 262.162 186.499 262.705 186.079C263.249 185.659 263.351 184.868 262.931 184.325C257.193 176.96 252.419 167.976 248.586 158.582C244.004 147.354 240.766 135.578 238.881 125.389C238.762 124.712 238.096 124.269 237.419 124.389C236.742 124.508 236.298 125.174 236.417 125.85C238.335 136.177 241.615 148.13 246.258 159.53C250.178 169.111 255.067 178.316 260.95 185.854ZM195.406 333.839L184.903 355.21C184.912 355.249 184.906 355.312 184.916 355.352C184.925 355.826 184.67 356.24 184.29 356.475L181.1 362.957C190.746 370.782 198.838 376.612 207.622 381.075C216.571 385.623 226.267 388.77 239.105 391.169C239.779 391.299 240.247 391.955 240.097 392.633C239.967 393.307 239.31 393.775 238.631 393.625C225.548 391.16 215.653 387.957 206.49 383.294C197.658 378.801 189.55 372.996 179.963 365.24L168.104 389.38C169.024 389.928 170.511 390.943 172.194 392.347C192.178 409.075 211.513 421.852 233.291 428.407C255.048 434.967 279.332 435.306 309.28 427.185C316.67 425.178 323.582 422.475 330.047 419.112C335.703 416.19 340.994 412.775 345.931 408.925C331.841 408.42 318.711 406.713 307.239 404.3C293.016 401.318 281.309 397.219 273.419 393.02C268.493 390.377 265.712 387.326 264.807 384.307C264.171 382.157 264.479 380.051 265.662 378.131C266.765 376.313 268.641 374.685 271.217 373.388C277.942 369.983 289.731 368.671 305.072 371.989C339.518 379.449 352.332 375.55 370.843 369.942C373.669 369.083 376.653 368.186 379.94 367.259C384.766 358.23 388.909 348.514 392.408 338.267C395.764 328.469 398.543 318.165 400.767 307.536C389.891 315.391 356.455 328.055 324.179 334.428C299.08 339.385 274.547 340.618 261.589 332.919C256.511 329.897 253.266 325.506 251.926 320.66C251.207 318.074 251.042 315.375 251.417 312.674C251.795 309.991 252.722 307.345 254.201 304.836C257.418 299.425 263.251 294.802 271.781 292.441C274.409 291.711 280.308 292.423 288.506 293.376C316.932 296.731 373.677 303.427 406.807 265.744C407.685 255.478 408.163 245.099 408.284 234.702C408.392 225.821 408.225 216.923 407.824 208.081C407.139 209.654 406.382 211.182 405.571 212.661C400.953 221.08 394.455 227.79 387.725 231.962C380.868 236.207 373.704 237.849 367.881 236.062C366.959 235.763 366.038 235.381 365.176 234.901C349.871 226.495 349.131 216.323 354.975 205.725C360.178 196.275 370.703 186.596 380.549 177.554C392.064 166.976 402.589 157.296 401.847 150.692C400.501 142.593 398.996 134.697 397.316 127.113C395.883 120.653 394.34 114.342 392.686 108.266C389.955 113.623 384.252 122.28 378.355 130.298C371.492 139.666 364.296 148.242 361.114 149.787C356.71 151.955 352.628 152.512 349.031 151.874C345.219 151.206 342.005 149.212 339.519 146.444C337.083 143.706 335.37 140.174 334.547 136.367C333.487 131.476 333.917 126.128 336.147 121.367C340.58 111.996 349.548 104.761 358.378 97.6411C368.063 89.8409 377.625 82.1328 380.391 72.1222C375.066 59.5158 369.203 49.0077 363.044 41.2664C357.482 34.2948 351.699 29.616 345.834 27.735L265.032 192.103C272.63 191.145 279.878 190.727 287.024 190.312C308.628 189.07 329.104 187.889 352.307 172.165C352.88 171.78 353.662 171.926 354.047 172.498C354.432 173.07 354.286 173.851 353.713 174.236C329.944 190.364 309.139 191.561 287.186 192.824C279.526 193.258 271.748 193.719 263.722 194.799L223.464 276.668C235.764 274.882 246.491 275.212 257.027 275.525C271.249 275.977 285.135 276.406 301.985 271.504C302.644 271.306 303.34 271.701 303.538 272.358C303.736 273.016 303.341 273.712 302.682 273.91C285.423 278.929 271.348 278.484 256.959 278.03C246.04 277.683 234.917 277.344 222.12 279.393L196.734 331.035C210.181 329.536 223.153 334.765 237.275 340.467C254.196 347.286 272.843 354.815 295.851 351.973C296.538 351.893 297.174 352.384 297.254 353.07C297.334 353.756 296.842 354.392 296.155 354.472C272.525 357.399 253.537 349.745 236.335 342.785C221.94 336.982 208.782 331.673 195.388 333.74L195.406 333.839ZM112.976 243.547C112.798 242.884 112.122 242.485 111.434 242.649C110.771 242.827 110.371 243.503 110.535 244.19C115.373 262.428 128.937 272.327 145.11 284.115C160.632 295.435 178.587 308.52 193.246 332.527L182.616 354.156C170.101 354.334 158.344 353.689 147.325 351.085C136.062 348.415 125.537 343.703 115.727 335.71C115.188 335.279 114.394 335.343 113.962 335.881C113.529 336.42 113.594 337.213 114.132 337.645C124.278 345.91 135.128 350.773 146.743 353.526C157.63 356.099 169.151 356.8 181.372 356.691L165.747 388.467C165.2 388.348 164.837 388.393 164.703 388.611C147.337 385.942 134.837 383.483 124.966 380.295C114.763 377.02 107.341 372.959 100.199 367.109C83.3258 353.249 73.1031 336.894 67.7179 319.41C62.7334 303.26 61.8694 286.108 63.6398 269.035C70.7511 283.393 80.7068 295.748 90.8554 304.987C104.164 317.125 117.905 324.016 126.16 323.379C129.503 323.123 132.42 321.599 134.576 319.406C136.901 317.049 138.377 313.919 138.693 310.713C139.95 297.847 127.427 288.923 112.339 278.205C96.9455 267.248 78.8311 254.367 70.7306 233.67C74.3784 221.086 78.986 208.957 83.9308 197.723C88.3025 187.744 92.9549 178.509 97.3643 170.346C97.8729 173.792 98.5794 178.331 99.5888 183.358C103.688 203.639 112.782 231.565 133.892 227.288C144.982 225.043 147.105 218.96 145.207 209.499C144.155 204.295 141.856 198.123 139.177 190.964C133.006 174.453 124.87 152.645 126.179 126.742C132.478 119.021 139.279 111.576 146.473 104.472C153.132 97.9109 160.169 91.6327 167.516 85.6953C166.625 102.974 167.947 122.049 171.262 137.726C174.41 152.613 179.424 164.526 186.15 169.063C187.598 170.44 189.079 171.518 190.583 172.342C195.066 174.78 199.688 174.925 203.72 173.903C207.729 172.866 211.168 170.658 213.384 168.369C214.212 167.487 214.893 166.599 215.354 165.743C220.138 156.973 214.801 145.013 208.195 130.161C200.395 112.649 190.758 90.99 194.245 66.4789C201.799 61.6745 209.599 57.2055 217.542 53.1593C224.518 49.5913 231.652 46.3385 238.886 43.4145C235.151 55.0241 242.849 84.6716 245.086 93.2848C245.297 94.0848 245.452 94.6492 245.597 95.2576C246.54 99.2221 248.289 102.124 250.387 104.134C252.295 105.961 254.53 107.067 256.729 107.581C258.951 108.11 261.16 108.061 263.046 107.612C264.913 107.168 266.514 106.31 267.58 105.206C273.797 98.7085 271.667 89.7589 268.927 78.1552C266.117 66.2571 262.595 51.4591 267.094 33.9023C280.006 30.4153 293.125 28.0608 306.293 26.9598C318.608 25.9373 330.963 26.0456 343.236 27.3766L221.154 275.703C211.466 261.419 203.037 251.729 195.777 243.378C183.665 229.463 174.917 219.392 169.178 197.802C169 197.139 168.324 196.74 167.636 196.904C166.973 197.083 166.573 197.758 166.736 198.445C172.616 220.624 181.533 230.883 193.868 245.035C201.268 253.54 209.895 263.452 219.866 278.312L194.49 329.91C179.727 306.34 161.942 293.36 146.523 282.121C130.754 270.631 117.515 260.965 112.902 243.587L112.976 243.547Z" fill="url(#paint0_linear_0_3)" fill-opacity="0.8"/>
<defs>
<linearGradient id="paint0_linear_0_3" x1="190.129" y1="52.1076" x2="284.806" y2="449.992" gradientUnits="userSpaceOnUse">
<stop stop-color="#220128"/>
<stop offset="1" stop-color="#160017"/>
</linearGradient>
</defs>
</svg>
